<mxfile host="Electron" modified="2023-12-03T20:42:09.556Z" agent="Mozilla/5.0 (Windows NT 10.0; Win64; x64) AppleWebKit/537.36 (KHTML, like Gecko) draw.io/22.1.2 Chrome/114.0.5735.289 Electron/25.9.4 Safari/537.36" etag="F3o39Bp0nAlov9sSFzLo" version="22.1.2" type="device" pages="3">
  <diagram name="Flowchart" id="0W54djvBTxM4C20O4Qwg">
    <mxGraphModel dx="2858" dy="2420" grid="0" gridSize="10" guides="1" tooltips="1" connect="1" arrows="1" fold="1" page="0" pageScale="1" pageWidth="850" pageHeight="1100" math="0" shadow="0">
      <root>
        <mxCell id="0" />
        <mxCell id="1" parent="0" />
        <mxCell id="roqjim1XCmS8cCVfeV_a-23" style="edgeStyle=orthogonalEdgeStyle;rounded=0;orthogonalLoop=1;jettySize=auto;html=1;entryX=0.224;entryY=0.013;entryDx=0;entryDy=0;entryPerimeter=0;" parent="1" source="enShkDwKftKQQRSK3YwB-1" target="roqjim1XCmS8cCVfeV_a-22" edge="1">
          <mxGeometry relative="1" as="geometry" />
        </mxCell>
        <mxCell id="enShkDwKftKQQRSK3YwB-1" value="Customer" style="swimlane;startSize=20;whiteSpace=wrap;html=1;fillColor=#d5e8d4;strokeColor=#82b366;fillStyle=auto;labelBackgroundColor=none;strokeWidth=3;" parent="1" vertex="1">
          <mxGeometry x="-512" y="-665" width="675.5" height="973" as="geometry">
            <mxRectangle x="-512" y="-665" width="91" height="26" as="alternateBounds" />
          </mxGeometry>
        </mxCell>
        <mxCell id="xsp1jLoeA6Wbro83TUhm-1" style="edgeStyle=orthogonalEdgeStyle;rounded=0;orthogonalLoop=1;jettySize=auto;html=1;exitX=0.5;exitY=1;exitDx=0;exitDy=0;entryX=0.5;entryY=0;entryDx=0;entryDy=0;" parent="enShkDwKftKQQRSK3YwB-1" source="enShkDwKftKQQRSK3YwB-18" target="enShkDwKftKQQRSK3YwB-27" edge="1">
          <mxGeometry relative="1" as="geometry" />
        </mxCell>
        <mxCell id="enShkDwKftKQQRSK3YwB-18" value="Receive Delivery" style="rounded=1;whiteSpace=wrap;html=1;absoluteArcSize=1;arcSize=14;strokeWidth=2;" parent="enShkDwKftKQQRSK3YwB-1" vertex="1">
          <mxGeometry x="327.5" y="710" width="104" height="49" as="geometry" />
        </mxCell>
        <mxCell id="enShkDwKftKQQRSK3YwB-87" value="" style="edgeStyle=orthogonalEdgeStyle;rounded=0;orthogonalLoop=1;jettySize=auto;html=1;" parent="enShkDwKftKQQRSK3YwB-1" source="enShkDwKftKQQRSK3YwB-20" target="enShkDwKftKQQRSK3YwB-86" edge="1">
          <mxGeometry relative="1" as="geometry" />
        </mxCell>
        <mxCell id="enShkDwKftKQQRSK3YwB-20" value="Delivery Confimed" style="rounded=1;whiteSpace=wrap;html=1;absoluteArcSize=1;arcSize=14;strokeWidth=2;" parent="enShkDwKftKQQRSK3YwB-1" vertex="1">
          <mxGeometry x="339" y="902" width="88" height="49" as="geometry" />
        </mxCell>
        <mxCell id="enShkDwKftKQQRSK3YwB-64" value="" style="edgeStyle=orthogonalEdgeStyle;rounded=0;orthogonalLoop=1;jettySize=auto;html=1;" parent="enShkDwKftKQQRSK3YwB-1" source="enShkDwKftKQQRSK3YwB-23" target="enShkDwKftKQQRSK3YwB-63" edge="1">
          <mxGeometry relative="1" as="geometry" />
        </mxCell>
        <mxCell id="enShkDwKftKQQRSK3YwB-23" value="Browse Restaurants &amp;amp; Menu /&amp;nbsp;Search Items" style="rounded=1;whiteSpace=wrap;html=1;absoluteArcSize=1;arcSize=14;strokeWidth=2;" parent="enShkDwKftKQQRSK3YwB-1" vertex="1">
          <mxGeometry x="307.5" y="97" width="144" height="51" as="geometry" />
        </mxCell>
        <mxCell id="enShkDwKftKQQRSK3YwB-28" value="" style="edgeStyle=orthogonalEdgeStyle;rounded=0;orthogonalLoop=1;jettySize=auto;html=1;entryX=0.5;entryY=0;entryDx=0;entryDy=0;" parent="enShkDwKftKQQRSK3YwB-1" source="enShkDwKftKQQRSK3YwB-25" target="enShkDwKftKQQRSK3YwB-29" edge="1">
          <mxGeometry relative="1" as="geometry" />
        </mxCell>
        <mxCell id="enShkDwKftKQQRSK3YwB-25" value="Place Order" style="rounded=1;whiteSpace=wrap;html=1;absoluteArcSize=1;arcSize=14;strokeWidth=2;" parent="enShkDwKftKQQRSK3YwB-1" vertex="1">
          <mxGeometry x="332" y="354" width="93" height="48" as="geometry" />
        </mxCell>
        <mxCell id="enShkDwKftKQQRSK3YwB-73" value="" style="edgeStyle=orthogonalEdgeStyle;rounded=0;orthogonalLoop=1;jettySize=auto;html=1;entryX=1;entryY=0.5;entryDx=0;entryDy=0;" parent="enShkDwKftKQQRSK3YwB-1" source="enShkDwKftKQQRSK3YwB-27" target="enShkDwKftKQQRSK3YwB-72" edge="1">
          <mxGeometry relative="1" as="geometry" />
        </mxCell>
        <mxCell id="xsp1jLoeA6Wbro83TUhm-4" style="edgeStyle=orthogonalEdgeStyle;rounded=0;orthogonalLoop=1;jettySize=auto;html=1;exitX=1;exitY=0.5;exitDx=0;exitDy=0;" parent="enShkDwKftKQQRSK3YwB-1" source="enShkDwKftKQQRSK3YwB-27" target="enShkDwKftKQQRSK3YwB-84" edge="1">
          <mxGeometry relative="1" as="geometry" />
        </mxCell>
        <mxCell id="enShkDwKftKQQRSK3YwB-27" value="Payment Method" style="rounded=1;whiteSpace=wrap;html=1;absoluteArcSize=1;arcSize=14;strokeWidth=2;" parent="enShkDwKftKQQRSK3YwB-1" vertex="1">
          <mxGeometry x="325.5" y="806" width="108" height="48" as="geometry" />
        </mxCell>
        <mxCell id="enShkDwKftKQQRSK3YwB-80" value="" style="edgeStyle=orthogonalEdgeStyle;rounded=0;orthogonalLoop=1;jettySize=auto;html=1;exitX=0.5;exitY=1;exitDx=0;exitDy=0;" parent="enShkDwKftKQQRSK3YwB-1" source="enShkDwKftKQQRSK3YwB-29" target="enShkDwKftKQQRSK3YwB-79" edge="1">
          <mxGeometry relative="1" as="geometry" />
        </mxCell>
        <mxCell id="roqjim1XCmS8cCVfeV_a-14" style="edgeStyle=orthogonalEdgeStyle;rounded=0;orthogonalLoop=1;jettySize=auto;html=1;exitX=0.5;exitY=1;exitDx=0;exitDy=0;" parent="enShkDwKftKQQRSK3YwB-1" source="enShkDwKftKQQRSK3YwB-29" target="enShkDwKftKQQRSK3YwB-81" edge="1">
          <mxGeometry relative="1" as="geometry" />
        </mxCell>
        <mxCell id="roqjim1XCmS8cCVfeV_a-18" value="" style="edgeStyle=orthogonalEdgeStyle;rounded=0;orthogonalLoop=1;jettySize=auto;html=1;" parent="enShkDwKftKQQRSK3YwB-1" source="enShkDwKftKQQRSK3YwB-29" target="roqjim1XCmS8cCVfeV_a-17" edge="1">
          <mxGeometry relative="1" as="geometry">
            <Array as="points">
              <mxPoint x="378" y="545" />
              <mxPoint x="77" y="545" />
            </Array>
          </mxGeometry>
        </mxCell>
        <mxCell id="roqjim1XCmS8cCVfeV_a-21" value="" style="edgeStyle=orthogonalEdgeStyle;rounded=0;orthogonalLoop=1;jettySize=auto;html=1;" parent="enShkDwKftKQQRSK3YwB-1" source="enShkDwKftKQQRSK3YwB-29" target="roqjim1XCmS8cCVfeV_a-20" edge="1">
          <mxGeometry relative="1" as="geometry">
            <Array as="points">
              <mxPoint x="378" y="544" />
              <mxPoint x="220" y="544" />
            </Array>
          </mxGeometry>
        </mxCell>
        <mxCell id="enShkDwKftKQQRSK3YwB-29" value="Confirm Order" style="rounded=1;whiteSpace=wrap;html=1;absoluteArcSize=1;arcSize=14;strokeWidth=2;" parent="enShkDwKftKQQRSK3YwB-1" vertex="1">
          <mxGeometry x="326.5" y="490" width="103" height="48" as="geometry" />
        </mxCell>
        <mxCell id="enShkDwKftKQQRSK3YwB-60" value="&lt;font style=&quot;font-size: 5px;&quot;&gt;consider how users can filter or sort restaurants (e.g., by distance, cuisine type, ratings, or delivery time).&lt;/font&gt;" style="whiteSpace=wrap;html=1;shape=mxgraph.basic.document;align=left;spacing=4;verticalAlign=middle;" parent="enShkDwKftKQQRSK3YwB-1" vertex="1">
          <mxGeometry x="467" y="94" width="98" height="51" as="geometry" />
        </mxCell>
        <mxCell id="roqjim1XCmS8cCVfeV_a-9" value="" style="edgeStyle=orthogonalEdgeStyle;rounded=0;orthogonalLoop=1;jettySize=auto;html=1;" parent="enShkDwKftKQQRSK3YwB-1" source="enShkDwKftKQQRSK3YwB-63" target="roqjim1XCmS8cCVfeV_a-8" edge="1">
          <mxGeometry relative="1" as="geometry" />
        </mxCell>
        <mxCell id="enShkDwKftKQQRSK3YwB-63" value="Add to Cart" style="rounded=1;whiteSpace=wrap;html=1;absoluteArcSize=1;arcSize=14;strokeWidth=2;" parent="enShkDwKftKQQRSK3YwB-1" vertex="1">
          <mxGeometry x="336" y="182" width="86" height="51" as="geometry" />
        </mxCell>
        <mxCell id="enShkDwKftKQQRSK3YwB-69" value="&lt;font style=&quot;font-size: 5px;&quot;&gt;This step could also include a final review of the order, where the user can confirm their order details (items, quantities, total price, delivery address).&lt;/font&gt;" style="whiteSpace=wrap;html=1;shape=mxgraph.basic.document;align=left;spacing=4;verticalAlign=middle;" parent="enShkDwKftKQQRSK3YwB-1" vertex="1">
          <mxGeometry x="451.5" y="351" width="125.5" height="51" as="geometry" />
        </mxCell>
        <mxCell id="xsp1jLoeA6Wbro83TUhm-6" style="edgeStyle=orthogonalEdgeStyle;rounded=0;orthogonalLoop=1;jettySize=auto;html=1;exitX=0.5;exitY=1;exitDx=0;exitDy=0;entryX=0.5;entryY=0;entryDx=0;entryDy=0;" parent="enShkDwKftKQQRSK3YwB-1" source="enShkDwKftKQQRSK3YwB-72" target="enShkDwKftKQQRSK3YwB-20" edge="1">
          <mxGeometry relative="1" as="geometry">
            <Array as="points">
              <mxPoint x="193" y="875" />
              <mxPoint x="383" y="875" />
            </Array>
          </mxGeometry>
        </mxCell>
        <mxCell id="enShkDwKftKQQRSK3YwB-72" value="Online Payment&lt;br&gt;(Card / Mobile Banking)" style="rounded=1;whiteSpace=wrap;html=1;absoluteArcSize=1;arcSize=14;strokeWidth=2;" parent="enShkDwKftKQQRSK3YwB-1" vertex="1">
          <mxGeometry x="127" y="806" width="132.5" height="48" as="geometry" />
        </mxCell>
        <mxCell id="roqjim1XCmS8cCVfeV_a-15" style="edgeStyle=orthogonalEdgeStyle;rounded=0;orthogonalLoop=1;jettySize=auto;html=1;exitX=0.25;exitY=1;exitDx=0;exitDy=0;entryX=0.5;entryY=0;entryDx=0;entryDy=0;" parent="enShkDwKftKQQRSK3YwB-1" source="enShkDwKftKQQRSK3YwB-79" target="enShkDwKftKQQRSK3YwB-18" edge="1">
          <mxGeometry relative="1" as="geometry" />
        </mxCell>
        <mxCell id="roqjim1XCmS8cCVfeV_a-50" style="edgeStyle=orthogonalEdgeStyle;rounded=0;orthogonalLoop=1;jettySize=auto;html=1;exitX=0.75;exitY=1;exitDx=0;exitDy=0;" parent="enShkDwKftKQQRSK3YwB-1" source="enShkDwKftKQQRSK3YwB-79" target="roqjim1XCmS8cCVfeV_a-48" edge="1">
          <mxGeometry relative="1" as="geometry" />
        </mxCell>
        <mxCell id="enShkDwKftKQQRSK3YwB-79" value="Order Tracking / Status Update" style="rounded=1;whiteSpace=wrap;html=1;absoluteArcSize=1;arcSize=14;strokeWidth=2;" parent="enShkDwKftKQQRSK3YwB-1" vertex="1">
          <mxGeometry x="461" y="585" width="177" height="48" as="geometry" />
        </mxCell>
        <mxCell id="roqjim1XCmS8cCVfeV_a-19" style="edgeStyle=orthogonalEdgeStyle;rounded=0;orthogonalLoop=1;jettySize=auto;html=1;entryX=0.5;entryY=0;entryDx=0;entryDy=0;" parent="enShkDwKftKQQRSK3YwB-1" source="enShkDwKftKQQRSK3YwB-81" target="enShkDwKftKQQRSK3YwB-18" edge="1">
          <mxGeometry relative="1" as="geometry" />
        </mxCell>
        <mxCell id="enShkDwKftKQQRSK3YwB-81" value="Chat with the rider" style="rounded=1;whiteSpace=wrap;html=1;absoluteArcSize=1;arcSize=14;strokeWidth=2;" parent="enShkDwKftKQQRSK3YwB-1" vertex="1">
          <mxGeometry x="320" y="585" width="116" height="48" as="geometry" />
        </mxCell>
        <mxCell id="xsp1jLoeA6Wbro83TUhm-2" style="edgeStyle=orthogonalEdgeStyle;rounded=0;orthogonalLoop=1;jettySize=auto;html=1;" parent="enShkDwKftKQQRSK3YwB-1" source="enShkDwKftKQQRSK3YwB-84" target="enShkDwKftKQQRSK3YwB-20" edge="1">
          <mxGeometry relative="1" as="geometry" />
        </mxCell>
        <mxCell id="enShkDwKftKQQRSK3YwB-84" value="Cash Payment" style="rounded=1;whiteSpace=wrap;html=1;absoluteArcSize=1;arcSize=14;strokeWidth=2;" parent="enShkDwKftKQQRSK3YwB-1" vertex="1">
          <mxGeometry x="521" y="902" width="104" height="49" as="geometry" />
        </mxCell>
        <mxCell id="enShkDwKftKQQRSK3YwB-86" value="Ratings &amp;amp; Review" style="rounded=1;whiteSpace=wrap;html=1;absoluteArcSize=1;arcSize=14;strokeWidth=2;" parent="enShkDwKftKQQRSK3YwB-1" vertex="1">
          <mxGeometry x="24" y="902" width="109" height="49" as="geometry" />
        </mxCell>
        <mxCell id="roqjim1XCmS8cCVfeV_a-10" value="" style="edgeStyle=orthogonalEdgeStyle;rounded=0;orthogonalLoop=1;jettySize=auto;html=1;" parent="enShkDwKftKQQRSK3YwB-1" source="enShkDwKftKQQRSK3YwB-63" target="roqjim1XCmS8cCVfeV_a-8" edge="1">
          <mxGeometry relative="1" as="geometry">
            <mxPoint x="-133" y="-432" as="sourcePoint" />
            <mxPoint x="-132" y="-362" as="targetPoint" />
          </mxGeometry>
        </mxCell>
        <mxCell id="roqjim1XCmS8cCVfeV_a-11" style="edgeStyle=orthogonalEdgeStyle;rounded=0;orthogonalLoop=1;jettySize=auto;html=1;" parent="enShkDwKftKQQRSK3YwB-1" source="roqjim1XCmS8cCVfeV_a-8" target="enShkDwKftKQQRSK3YwB-25" edge="1">
          <mxGeometry relative="1" as="geometry" />
        </mxCell>
        <mxCell id="roqjim1XCmS8cCVfeV_a-8" value="Apply Discount/Coupon" style="rounded=1;whiteSpace=wrap;html=1;absoluteArcSize=1;arcSize=14;strokeWidth=2;" parent="enShkDwKftKQQRSK3YwB-1" vertex="1">
          <mxGeometry x="327.5" y="271" width="102" height="51" as="geometry" />
        </mxCell>
        <mxCell id="roqjim1XCmS8cCVfeV_a-17" value="Order History" style="rounded=1;whiteSpace=wrap;html=1;absoluteArcSize=1;arcSize=14;strokeWidth=2;" parent="enShkDwKftKQQRSK3YwB-1" vertex="1">
          <mxGeometry x="24" y="587" width="103" height="48" as="geometry" />
        </mxCell>
        <mxCell id="roqjim1XCmS8cCVfeV_a-20" value="Loyality Points" style="rounded=1;whiteSpace=wrap;html=1;absoluteArcSize=1;arcSize=14;strokeWidth=2;" parent="enShkDwKftKQQRSK3YwB-1" vertex="1">
          <mxGeometry x="168" y="587" width="103" height="48" as="geometry" />
        </mxCell>
        <mxCell id="roqjim1XCmS8cCVfeV_a-48" value="Order Cancelled" style="rounded=1;whiteSpace=wrap;html=1;absoluteArcSize=1;arcSize=14;strokeWidth=2;" parent="enShkDwKftKQQRSK3YwB-1" vertex="1">
          <mxGeometry x="544" y="668" width="99" height="48" as="geometry" />
        </mxCell>
        <mxCell id="rEAy2gM0Kjj1-3dldvWn-15" style="edgeStyle=orthogonalEdgeStyle;rounded=0;orthogonalLoop=1;jettySize=auto;html=1;" parent="enShkDwKftKQQRSK3YwB-1" source="rEAy2gM0Kjj1-3dldvWn-13" target="enShkDwKftKQQRSK3YwB-23" edge="1">
          <mxGeometry relative="1" as="geometry" />
        </mxCell>
        <mxCell id="rEAy2gM0Kjj1-3dldvWn-13" value="Start" style="ellipse;whiteSpace=wrap;html=1;aspect=fixed;" parent="enShkDwKftKQQRSK3YwB-1" vertex="1">
          <mxGeometry x="78" y="83" width="80" height="80" as="geometry" />
        </mxCell>
        <mxCell id="roqjim1XCmS8cCVfeV_a-46" style="edgeStyle=orthogonalEdgeStyle;rounded=0;orthogonalLoop=1;jettySize=auto;html=1;exitX=0.5;exitY=1;exitDx=0;exitDy=0;entryX=0.5;entryY=0;entryDx=0;entryDy=0;" parent="1" source="enShkDwKftKQQRSK3YwB-2" target="roqjim1XCmS8cCVfeV_a-22" edge="1">
          <mxGeometry relative="1" as="geometry" />
        </mxCell>
        <mxCell id="enShkDwKftKQQRSK3YwB-2" value="Restaurant" style="swimlane;startSize=20;whiteSpace=wrap;html=1;fillColor=#ffe6cc;strokeColor=#d79b00;strokeWidth=3;" parent="1" vertex="1">
          <mxGeometry x="284" y="-667" width="410" height="980" as="geometry" />
        </mxCell>
        <mxCell id="enShkDwKftKQQRSK3YwB-40" value="" style="edgeStyle=orthogonalEdgeStyle;rounded=0;orthogonalLoop=1;jettySize=auto;html=1;" parent="enShkDwKftKQQRSK3YwB-2" source="enShkDwKftKQQRSK3YwB-10" target="enShkDwKftKQQRSK3YwB-39" edge="1">
          <mxGeometry relative="1" as="geometry" />
        </mxCell>
        <mxCell id="enShkDwKftKQQRSK3YwB-10" value="Prepare Order" style="rounded=1;whiteSpace=wrap;html=1;absoluteArcSize=1;arcSize=14;strokeWidth=2;" parent="enShkDwKftKQQRSK3YwB-2" vertex="1">
          <mxGeometry x="45.5" y="137" width="84" height="49" as="geometry" />
        </mxCell>
        <mxCell id="enShkDwKftKQQRSK3YwB-35" value="" style="edgeStyle=orthogonalEdgeStyle;rounded=0;orthogonalLoop=1;jettySize=auto;html=1;exitX=1;exitY=0.5;exitDx=0;exitDy=0;" parent="enShkDwKftKQQRSK3YwB-2" source="rEAy2gM0Kjj1-3dldvWn-16" target="enShkDwKftKQQRSK3YwB-34" edge="1">
          <mxGeometry relative="1" as="geometry">
            <mxPoint x="313.5" y="81" as="sourcePoint" />
          </mxGeometry>
        </mxCell>
        <mxCell id="enShkDwKftKQQRSK3YwB-34" value="Menu Management" style="rounded=1;whiteSpace=wrap;html=1;absoluteArcSize=1;arcSize=14;strokeWidth=2;" parent="enShkDwKftKQQRSK3YwB-2" vertex="1">
          <mxGeometry x="303" y="582" width="88" height="40" as="geometry" />
        </mxCell>
        <mxCell id="enShkDwKftKQQRSK3YwB-38" style="edgeStyle=orthogonalEdgeStyle;rounded=0;orthogonalLoop=1;jettySize=auto;html=1;exitX=0.5;exitY=1;exitDx=0;exitDy=0;entryX=0.5;entryY=0;entryDx=0;entryDy=0;" parent="enShkDwKftKQQRSK3YwB-2" source="enShkDwKftKQQRSK3YwB-36" target="enShkDwKftKQQRSK3YwB-10" edge="1">
          <mxGeometry relative="1" as="geometry" />
        </mxCell>
        <mxCell id="enShkDwKftKQQRSK3YwB-36" value="Receive new Order" style="rounded=1;whiteSpace=wrap;html=1;absoluteArcSize=1;arcSize=14;strokeWidth=2;" parent="enShkDwKftKQQRSK3YwB-2" vertex="1">
          <mxGeometry x="44" y="50" width="88" height="47" as="geometry" />
        </mxCell>
        <mxCell id="roqjim1XCmS8cCVfeV_a-55" style="edgeStyle=orthogonalEdgeStyle;rounded=0;orthogonalLoop=1;jettySize=auto;html=1;exitX=0.5;exitY=1;exitDx=0;exitDy=0;entryX=0.5;entryY=0;entryDx=0;entryDy=0;" parent="enShkDwKftKQQRSK3YwB-2" source="enShkDwKftKQQRSK3YwB-39" target="roqjim1XCmS8cCVfeV_a-40" edge="1">
          <mxGeometry relative="1" as="geometry" />
        </mxCell>
        <mxCell id="enShkDwKftKQQRSK3YwB-39" value="Order Ready for Pickup" style="rounded=1;whiteSpace=wrap;html=1;absoluteArcSize=1;arcSize=14;strokeWidth=2;" parent="enShkDwKftKQQRSK3YwB-2" vertex="1">
          <mxGeometry x="47" y="220" width="81" height="49" as="geometry" />
        </mxCell>
        <mxCell id="roqjim1XCmS8cCVfeV_a-40" value="Deliver Order to Rider" style="rounded=1;whiteSpace=wrap;html=1;absoluteArcSize=1;arcSize=14;strokeWidth=2;" parent="enShkDwKftKQQRSK3YwB-2" vertex="1">
          <mxGeometry x="47" y="314" width="81" height="49" as="geometry" />
        </mxCell>
        <mxCell id="rEAy2gM0Kjj1-3dldvWn-16" value="Start" style="ellipse;whiteSpace=wrap;html=1;aspect=fixed;" parent="enShkDwKftKQQRSK3YwB-2" vertex="1">
          <mxGeometry x="60" y="561" width="80" height="80" as="geometry" />
        </mxCell>
        <mxCell id="roqjim1XCmS8cCVfeV_a-47" style="edgeStyle=orthogonalEdgeStyle;rounded=0;orthogonalLoop=1;jettySize=auto;html=1;exitX=0.5;exitY=1;exitDx=0;exitDy=0;entryX=0.75;entryY=0;entryDx=0;entryDy=0;" parent="1" source="enShkDwKftKQQRSK3YwB-3" target="roqjim1XCmS8cCVfeV_a-22" edge="1">
          <mxGeometry relative="1" as="geometry" />
        </mxCell>
        <mxCell id="enShkDwKftKQQRSK3YwB-3" value="Delivery Personnel" style="swimlane;startSize=20;whiteSpace=wrap;html=1;fillColor=#f8cecc;strokeColor=#b85450;strokeWidth=3;" parent="1" vertex="1">
          <mxGeometry x="855" y="-664" width="359" height="974" as="geometry" />
        </mxCell>
        <mxCell id="enShkDwKftKQQRSK3YwB-15" value="" style="edgeStyle=orthogonalEdgeStyle;rounded=0;orthogonalLoop=1;jettySize=auto;html=1;" parent="enShkDwKftKQQRSK3YwB-3" source="enShkDwKftKQQRSK3YwB-12" target="enShkDwKftKQQRSK3YwB-14" edge="1">
          <mxGeometry relative="1" as="geometry" />
        </mxCell>
        <mxCell id="enShkDwKftKQQRSK3YwB-12" value="Receive new Delivery Order" style="rounded=1;whiteSpace=wrap;html=1;absoluteArcSize=1;arcSize=14;strokeWidth=2;" parent="enShkDwKftKQQRSK3YwB-3" vertex="1">
          <mxGeometry x="36" y="38" width="133" height="49" as="geometry" />
        </mxCell>
        <mxCell id="enShkDwKftKQQRSK3YwB-17" value="" style="edgeStyle=orthogonalEdgeStyle;rounded=0;orthogonalLoop=1;jettySize=auto;html=1;" parent="enShkDwKftKQQRSK3YwB-3" source="enShkDwKftKQQRSK3YwB-14" target="enShkDwKftKQQRSK3YwB-16" edge="1">
          <mxGeometry relative="1" as="geometry" />
        </mxCell>
        <mxCell id="enShkDwKftKQQRSK3YwB-14" value="Pickup Order" style="rounded=1;whiteSpace=wrap;html=1;absoluteArcSize=1;arcSize=14;strokeWidth=2;" parent="enShkDwKftKQQRSK3YwB-3" vertex="1">
          <mxGeometry x="36" y="298" width="133" height="49" as="geometry" />
        </mxCell>
        <mxCell id="enShkDwKftKQQRSK3YwB-16" value="Deliver Order" style="rounded=1;whiteSpace=wrap;html=1;absoluteArcSize=1;arcSize=14;strokeWidth=2;" parent="enShkDwKftKQQRSK3YwB-3" vertex="1">
          <mxGeometry x="36" y="442" width="133" height="49" as="geometry" />
        </mxCell>
        <mxCell id="enShkDwKftKQQRSK3YwB-42" style="edgeStyle=orthogonalEdgeStyle;rounded=0;orthogonalLoop=1;jettySize=auto;html=1;exitX=0.5;exitY=1;exitDx=0;exitDy=0;entryX=1;entryY=0.5;entryDx=0;entryDy=0;" parent="1" source="enShkDwKftKQQRSK3YwB-16" target="enShkDwKftKQQRSK3YwB-18" edge="1">
          <mxGeometry relative="1" as="geometry" />
        </mxCell>
        <mxCell id="rEAy2gM0Kjj1-3dldvWn-10" style="edgeStyle=orthogonalEdgeStyle;rounded=0;orthogonalLoop=1;jettySize=auto;html=1;exitX=0.25;exitY=1;exitDx=0;exitDy=0;entryX=0;entryY=0.25;entryDx=0;entryDy=0;" parent="1" source="enShkDwKftKQQRSK3YwB-44" target="enShkDwKftKQQRSK3YwB-4" edge="1">
          <mxGeometry relative="1" as="geometry" />
        </mxCell>
        <mxCell id="enShkDwKftKQQRSK3YwB-44" value="Auth Service" style="swimlane;startSize=20;whiteSpace=wrap;html=1;fillColor=#a20025;fontColor=#ffffff;strokeColor=#6F0000;" parent="1" vertex="1">
          <mxGeometry x="-1151" y="-1408" width="281" height="130" as="geometry" />
        </mxCell>
        <mxCell id="enShkDwKftKQQRSK3YwB-49" value="Authenticate" style="rounded=1;whiteSpace=wrap;html=1;absoluteArcSize=1;arcSize=14;strokeWidth=2;" parent="enShkDwKftKQQRSK3YwB-44" vertex="1">
          <mxGeometry x="26" y="40.5" width="103" height="49" as="geometry" />
        </mxCell>
        <mxCell id="enShkDwKftKQQRSK3YwB-67" style="edgeStyle=orthogonalEdgeStyle;rounded=0;orthogonalLoop=1;jettySize=auto;html=1;entryX=0;entryY=0.5;entryDx=0;entryDy=0;exitX=1;exitY=0.5;exitDx=0;exitDy=0;" parent="1" source="enShkDwKftKQQRSK3YwB-29" target="enShkDwKftKQQRSK3YwB-36" edge="1">
          <mxGeometry relative="1" as="geometry" />
        </mxCell>
        <mxCell id="enShkDwKftKQQRSK3YwB-75" value="Payment Service" style="swimlane;startSize=20;whiteSpace=wrap;html=1;fillColor=#f8cecc;strokeColor=#b85450;gradientColor=#ea6b66;" parent="1" vertex="1">
          <mxGeometry x="-911" y="106.63000000000001" width="316.5" height="116.75" as="geometry" />
        </mxCell>
        <mxCell id="enShkDwKftKQQRSK3YwB-77" value="Pay" style="rounded=1;whiteSpace=wrap;html=1;absoluteArcSize=1;arcSize=14;strokeWidth=2;" parent="enShkDwKftKQQRSK3YwB-75" vertex="1">
          <mxGeometry x="15" y="35" width="132.5" height="48" as="geometry" />
        </mxCell>
        <mxCell id="roqjim1XCmS8cCVfeV_a-7" style="edgeStyle=orthogonalEdgeStyle;rounded=0;orthogonalLoop=1;jettySize=auto;html=1;exitX=0.75;exitY=1;exitDx=0;exitDy=0;entryX=0.25;entryY=0;entryDx=0;entryDy=0;" parent="1" source="roqjim1XCmS8cCVfeV_a-2" target="enShkDwKftKQQRSK3YwB-2" edge="1">
          <mxGeometry relative="1" as="geometry">
            <mxPoint x="-46" y="-785" as="sourcePoint" />
            <Array as="points">
              <mxPoint x="-42" y="-740" />
              <mxPoint x="387" y="-740" />
            </Array>
          </mxGeometry>
        </mxCell>
        <mxCell id="roqjim1XCmS8cCVfeV_a-2" value="Restaurant Availability Service" style="swimlane;startSize=20;whiteSpace=wrap;html=1;fillColor=#bac8d3;strokeColor=#23445d;" parent="1" vertex="1">
          <mxGeometry x="-201" y="-875" width="212" height="68" as="geometry" />
        </mxCell>
        <mxCell id="roqjim1XCmS8cCVfeV_a-6" style="edgeStyle=orthogonalEdgeStyle;rounded=0;orthogonalLoop=1;jettySize=auto;html=1;exitX=0.75;exitY=0;exitDx=0;exitDy=0;entryX=0.5;entryY=1;entryDx=0;entryDy=0;" parent="1" source="enShkDwKftKQQRSK3YwB-23" target="roqjim1XCmS8cCVfeV_a-2" edge="1">
          <mxGeometry relative="1" as="geometry" />
        </mxCell>
        <mxCell id="roqjim1XCmS8cCVfeV_a-12" style="edgeStyle=orthogonalEdgeStyle;rounded=0;orthogonalLoop=1;jettySize=auto;html=1;entryX=1;entryY=0.5;entryDx=0;entryDy=0;" parent="1" source="enShkDwKftKQQRSK3YwB-72" target="enShkDwKftKQQRSK3YwB-75" edge="1">
          <mxGeometry relative="1" as="geometry" />
        </mxCell>
        <mxCell id="roqjim1XCmS8cCVfeV_a-22" value="Customer Support" style="swimlane;startSize=20;whiteSpace=wrap;html=1;fillColor=#d5e8d4;strokeColor=#82b366;gradientColor=#97d077;" parent="1" vertex="1">
          <mxGeometry x="-123" y="565" width="1224" height="73" as="geometry" />
        </mxCell>
        <mxCell id="roqjim1XCmS8cCVfeV_a-27" style="edgeStyle=orthogonalEdgeStyle;rounded=0;orthogonalLoop=1;jettySize=auto;html=1;exitX=0;exitY=0.75;exitDx=0;exitDy=0;dashed=1;" parent="1" source="roqjim1XCmS8cCVfeV_a-25" target="enShkDwKftKQQRSK3YwB-79" edge="1">
          <mxGeometry relative="1" as="geometry">
            <Array as="points">
              <mxPoint x="219" y="-824" />
              <mxPoint x="219" y="-54" />
            </Array>
            <mxPoint x="179" y="-49" as="targetPoint" />
          </mxGeometry>
        </mxCell>
        <mxCell id="roqjim1XCmS8cCVfeV_a-51" style="edgeStyle=orthogonalEdgeStyle;rounded=0;orthogonalLoop=1;jettySize=auto;html=1;exitX=0;exitY=0.75;exitDx=0;exitDy=0;entryX=0;entryY=0.5;entryDx=0;entryDy=0;dashed=1;" parent="1" source="roqjim1XCmS8cCVfeV_a-25" edge="1">
          <mxGeometry relative="1" as="geometry">
            <mxPoint x="715" y="-856" as="sourcePoint" />
            <mxPoint x="329.50000000000045" y="-505.5000000000002" as="targetPoint" />
            <Array as="points">
              <mxPoint x="219" y="-824" />
              <mxPoint x="219" y="-505" />
            </Array>
          </mxGeometry>
        </mxCell>
        <mxCell id="roqjim1XCmS8cCVfeV_a-25" value="Notification Service" style="swimlane;startSize=20;whiteSpace=wrap;html=1;fillColor=#647687;fontColor=#ffffff;strokeColor=#314354;" parent="1" vertex="1">
          <mxGeometry x="637" y="-872" width="258" height="64" as="geometry" />
        </mxCell>
        <mxCell id="roqjim1XCmS8cCVfeV_a-26" style="edgeStyle=orthogonalEdgeStyle;rounded=0;orthogonalLoop=1;jettySize=auto;html=1;exitX=1;exitY=0.5;exitDx=0;exitDy=0;entryX=0.5;entryY=1;entryDx=0;entryDy=0;dashed=1;" parent="1" source="enShkDwKftKQQRSK3YwB-10" target="roqjim1XCmS8cCVfeV_a-25" edge="1">
          <mxGeometry relative="1" as="geometry">
            <mxPoint x="333.50000000000045" y="-505.4999999999998" as="sourcePoint" />
            <mxPoint x="651.0000000000005" y="-753" as="targetPoint" />
            <Array as="points">
              <mxPoint x="767" y="-505" />
            </Array>
          </mxGeometry>
        </mxCell>
        <mxCell id="roqjim1XCmS8cCVfeV_a-28" style="edgeStyle=orthogonalEdgeStyle;rounded=0;orthogonalLoop=1;jettySize=auto;html=1;exitX=1;exitY=0.25;exitDx=0;exitDy=0;entryX=0.5;entryY=1;entryDx=0;entryDy=0;dashed=1;" parent="1" source="enShkDwKftKQQRSK3YwB-39" target="roqjim1XCmS8cCVfeV_a-25" edge="1">
          <mxGeometry relative="1" as="geometry">
            <Array as="points">
              <mxPoint x="767" y="-435" />
            </Array>
          </mxGeometry>
        </mxCell>
        <mxCell id="roqjim1XCmS8cCVfeV_a-31" style="edgeStyle=orthogonalEdgeStyle;rounded=0;orthogonalLoop=1;jettySize=auto;html=1;entryX=0.25;entryY=0;entryDx=0;entryDy=0;exitX=0.5;exitY=1;exitDx=0;exitDy=0;" parent="1" source="roqjim1XCmS8cCVfeV_a-29" target="enShkDwKftKQQRSK3YwB-12" edge="1">
          <mxGeometry relative="1" as="geometry">
            <Array as="points">
              <mxPoint x="1103" y="-701" />
              <mxPoint x="924" y="-701" />
            </Array>
          </mxGeometry>
        </mxCell>
        <mxCell id="roqjim1XCmS8cCVfeV_a-29" value="Delivery Service" style="swimlane;startSize=20;whiteSpace=wrap;html=1;fillColor=#fa6800;fontColor=#000000;strokeColor=#C73500;" parent="1" vertex="1">
          <mxGeometry x="997" y="-875" width="214" height="66" as="geometry" />
        </mxCell>
        <mxCell id="roqjim1XCmS8cCVfeV_a-30" style="edgeStyle=orthogonalEdgeStyle;rounded=0;orthogonalLoop=1;jettySize=auto;html=1;exitX=1;exitY=0.5;exitDx=0;exitDy=0;entryX=0.25;entryY=1;entryDx=0;entryDy=0;" parent="1" source="enShkDwKftKQQRSK3YwB-36" target="roqjim1XCmS8cCVfeV_a-29" edge="1">
          <mxGeometry relative="1" as="geometry">
            <mxPoint x="883" y="-838" as="targetPoint" />
            <Array as="points">
              <mxPoint x="599" y="-593" />
              <mxPoint x="599" y="-744" />
              <mxPoint x="1051" y="-744" />
            </Array>
          </mxGeometry>
        </mxCell>
        <mxCell id="roqjim1XCmS8cCVfeV_a-39" style="edgeStyle=orthogonalEdgeStyle;rounded=0;orthogonalLoop=1;jettySize=auto;html=1;exitX=0;exitY=0.25;exitDx=0;exitDy=0;entryX=0.5;entryY=1;entryDx=0;entryDy=0;dashed=1;" parent="1" source="enShkDwKftKQQRSK3YwB-14" target="roqjim1XCmS8cCVfeV_a-25" edge="1">
          <mxGeometry relative="1" as="geometry">
            <Array as="points">
              <mxPoint x="767" y="-354" />
            </Array>
            <mxPoint x="815" y="-856" as="targetPoint" />
          </mxGeometry>
        </mxCell>
        <mxCell id="roqjim1XCmS8cCVfeV_a-43" style="edgeStyle=orthogonalEdgeStyle;rounded=0;orthogonalLoop=1;jettySize=auto;html=1;exitX=1;exitY=0.75;exitDx=0;exitDy=0;entryX=0.5;entryY=1;entryDx=0;entryDy=0;dashed=1;" parent="1" source="roqjim1XCmS8cCVfeV_a-40" target="roqjim1XCmS8cCVfeV_a-25" edge="1">
          <mxGeometry relative="1" as="geometry">
            <Array as="points">
              <mxPoint x="767" y="-316" />
            </Array>
          </mxGeometry>
        </mxCell>
        <mxCell id="roqjim1XCmS8cCVfeV_a-45" style="edgeStyle=orthogonalEdgeStyle;rounded=0;orthogonalLoop=1;jettySize=auto;html=1;exitX=0;exitY=0.25;exitDx=0;exitDy=0;entryX=0.5;entryY=1;entryDx=0;entryDy=0;dashed=1;" parent="1" source="enShkDwKftKQQRSK3YwB-16" target="roqjim1XCmS8cCVfeV_a-25" edge="1">
          <mxGeometry relative="1" as="geometry">
            <Array as="points">
              <mxPoint x="891" y="-208" />
              <mxPoint x="767" y="-208" />
            </Array>
            <mxPoint x="815" y="-856" as="targetPoint" />
          </mxGeometry>
        </mxCell>
        <mxCell id="roqjim1XCmS8cCVfeV_a-53" style="edgeStyle=orthogonalEdgeStyle;rounded=0;orthogonalLoop=1;jettySize=auto;html=1;exitX=0;exitY=0.5;exitDx=0;exitDy=0;dashed=1;entryX=0.5;entryY=1;entryDx=0;entryDy=0;" parent="1" source="enShkDwKftKQQRSK3YwB-12" target="roqjim1XCmS8cCVfeV_a-25" edge="1">
          <mxGeometry relative="1" as="geometry">
            <mxPoint x="870" y="-599.5" as="sourcePoint" />
            <mxPoint x="815" y="-859" as="targetPoint" />
            <Array as="points">
              <mxPoint x="767" y="-601" />
            </Array>
          </mxGeometry>
        </mxCell>
        <mxCell id="roqjim1XCmS8cCVfeV_a-54" style="edgeStyle=orthogonalEdgeStyle;rounded=0;orthogonalLoop=1;jettySize=auto;html=1;exitX=1;exitY=0.5;exitDx=0;exitDy=0;entryX=0;entryY=0.75;entryDx=0;entryDy=0;" parent="1" source="roqjim1XCmS8cCVfeV_a-40" target="enShkDwKftKQQRSK3YwB-14" edge="1">
          <mxGeometry relative="1" as="geometry">
            <Array as="points">
              <mxPoint x="531" y="-328" />
              <mxPoint x="531" y="-330" />
            </Array>
          </mxGeometry>
        </mxCell>
        <mxCell id="rEAy2gM0Kjj1-3dldvWn-1" value="Account Service" style="swimlane;startSize=20;whiteSpace=wrap;html=1;fillColor=#fff2cc;strokeColor=#d6b656;strokeWidth=3;" parent="1" vertex="1">
          <mxGeometry x="-977" y="-1223" width="478" height="331" as="geometry" />
        </mxCell>
        <mxCell id="rEAy2gM0Kjj1-3dldvWn-5" value="Create and Manage Account, which includes setting Addresses and Payment information, etc." style="text;html=1;strokeColor=#666666;fillColor=#f5f5f5;align=center;verticalAlign=middle;whiteSpace=wrap;rounded=0;fontColor=#333333;dashed=1;" parent="rEAy2gM0Kjj1-3dldvWn-1" vertex="1">
          <mxGeometry x="18" y="37" width="444" height="67" as="geometry" />
        </mxCell>
        <mxCell id="rEAy2gM0Kjj1-3dldvWn-9" style="edgeStyle=orthogonalEdgeStyle;rounded=0;orthogonalLoop=1;jettySize=auto;html=1;exitX=0.75;exitY=1;exitDx=0;exitDy=0;" parent="rEAy2gM0Kjj1-3dldvWn-1" source="enShkDwKftKQQRSK3YwB-4" target="enShkDwKftKQQRSK3YwB-22" edge="1">
          <mxGeometry relative="1" as="geometry" />
        </mxCell>
        <mxCell id="enShkDwKftKQQRSK3YwB-4" value="Sign In" style="rounded=1;whiteSpace=wrap;html=1;absoluteArcSize=1;arcSize=14;strokeWidth=2;" parent="rEAy2gM0Kjj1-3dldvWn-1" vertex="1">
          <mxGeometry x="41" y="133" width="215" height="49" as="geometry" />
        </mxCell>
        <mxCell id="enShkDwKftKQQRSK3YwB-22" value="Account Settings" style="rounded=1;whiteSpace=wrap;html=1;absoluteArcSize=1;arcSize=14;strokeWidth=2;" parent="rEAy2gM0Kjj1-3dldvWn-1" vertex="1">
          <mxGeometry x="321" y="243" width="108" height="48" as="geometry" />
        </mxCell>
        <mxCell id="enShkDwKftKQQRSK3YwB-45" value="Create New Account" style="rounded=1;whiteSpace=wrap;html=1;absoluteArcSize=1;arcSize=14;strokeWidth=2;" parent="rEAy2gM0Kjj1-3dldvWn-1" vertex="1">
          <mxGeometry x="158" y="242" width="103" height="49" as="geometry" />
        </mxCell>
        <mxCell id="enShkDwKftKQQRSK3YwB-52" value="Forgot Password" style="rounded=1;whiteSpace=wrap;html=1;absoluteArcSize=1;arcSize=14;strokeWidth=2;" parent="rEAy2gM0Kjj1-3dldvWn-1" vertex="1">
          <mxGeometry x="41" y="242" width="79" height="49" as="geometry" />
        </mxCell>
        <mxCell id="rEAy2gM0Kjj1-3dldvWn-7" style="edgeStyle=orthogonalEdgeStyle;rounded=0;orthogonalLoop=1;jettySize=auto;html=1;exitX=0;exitY=0.75;exitDx=0;exitDy=0;entryX=0;entryY=0.5;entryDx=0;entryDy=0;strokeColor=default;" parent="1" source="enShkDwKftKQQRSK3YwB-4" target="enShkDwKftKQQRSK3YwB-44" edge="1">
          <mxGeometry relative="1" as="geometry">
            <mxPoint x="-41.529411764705856" y="-1226.3529411764705" as="targetPoint" />
          </mxGeometry>
        </mxCell>
        <mxCell id="rEAy2gM0Kjj1-3dldvWn-8" style="edgeStyle=orthogonalEdgeStyle;rounded=0;orthogonalLoop=1;jettySize=auto;html=1;exitX=0;exitY=0.25;exitDx=0;exitDy=0;entryX=0;entryY=0.5;entryDx=0;entryDy=0;" parent="1" source="enShkDwKftKQQRSK3YwB-52" target="enShkDwKftKQQRSK3YwB-44" edge="1">
          <mxGeometry relative="1" as="geometry" />
        </mxCell>
        <mxCell id="rEAy2gM0Kjj1-3dldvWn-12" style="edgeStyle=orthogonalEdgeStyle;rounded=0;orthogonalLoop=1;jettySize=auto;html=1;exitX=0.5;exitY=1;exitDx=0;exitDy=0;entryX=0;entryY=0.5;entryDx=0;entryDy=0;" parent="1" source="enShkDwKftKQQRSK3YwB-45" target="enShkDwKftKQQRSK3YwB-44" edge="1">
          <mxGeometry relative="1" as="geometry" />
        </mxCell>
        <mxCell id="rEAy2gM0Kjj1-3dldvWn-14" style="edgeStyle=orthogonalEdgeStyle;rounded=0;orthogonalLoop=1;jettySize=auto;html=1;entryX=0.75;entryY=1;entryDx=0;entryDy=0;strokeWidth=2;strokeColor=#d1b657;exitX=0;exitY=0.25;exitDx=0;exitDy=0;" parent="1" source="enShkDwKftKQQRSK3YwB-1" target="rEAy2gM0Kjj1-3dldvWn-1" edge="1">
          <mxGeometry relative="1" as="geometry" />
        </mxCell>
        <mxCell id="rEAy2gM0Kjj1-3dldvWn-17" style="edgeStyle=orthogonalEdgeStyle;rounded=0;orthogonalLoop=1;jettySize=auto;html=1;entryX=1;entryY=0.25;entryDx=0;entryDy=0;strokeColor=#d1b657;strokeWidth=2;exitX=0.5;exitY=0;exitDx=0;exitDy=0;" parent="1" source="enShkDwKftKQQRSK3YwB-2" target="rEAy2gM0Kjj1-3dldvWn-1" edge="1">
          <mxGeometry relative="1" as="geometry">
            <Array as="points">
              <mxPoint x="489" y="-1140" />
            </Array>
          </mxGeometry>
        </mxCell>
        <mxCell id="rEAy2gM0Kjj1-3dldvWn-19" style="edgeStyle=orthogonalEdgeStyle;rounded=0;orthogonalLoop=1;jettySize=auto;html=1;entryX=1;entryY=0.25;entryDx=0;entryDy=0;strokeColor=#cdb658;strokeWidth=2;exitX=1;exitY=0.25;exitDx=0;exitDy=0;" parent="1" source="enShkDwKftKQQRSK3YwB-3" target="rEAy2gM0Kjj1-3dldvWn-1" edge="1">
          <mxGeometry relative="1" as="geometry">
            <mxPoint x="-513.6666666666665" y="-1142.5" as="targetPoint" />
            <mxPoint x="1184" y="-585.9999999999995" as="sourcePoint" />
            <Array as="points">
              <mxPoint x="1303" y="-420" />
              <mxPoint x="1303" y="-1140" />
            </Array>
          </mxGeometry>
        </mxCell>
      </root>
    </mxGraphModel>
  </diagram>
  <diagram id="-lBdHGN4jC75U7H1PxqQ" name="Entity Relation">
    <mxGraphModel dx="2505" dy="2157" grid="0" gridSize="10" guides="1" tooltips="1" connect="1" arrows="1" fold="1" page="0" pageScale="1" pageWidth="850" pageHeight="1100" math="0" shadow="0">
      <root>
        <mxCell id="0" />
        <mxCell id="1" parent="0" />
        <mxCell id="8_B0k8QxM6QDgd3OKFG0-20" value="Customer" style="shape=table;startSize=30;container=1;collapsible=1;childLayout=tableLayout;fixedRows=1;rowLines=0;fontStyle=1;align=center;resizeLast=1;html=1;" parent="1" vertex="1">
          <mxGeometry x="-1035" y="-944" width="180" height="120" as="geometry" />
        </mxCell>
        <mxCell id="8_B0k8QxM6QDgd3OKFG0-21" value="" style="shape=tableRow;horizontal=0;startSize=0;swimlaneHead=0;swimlaneBody=0;fillColor=none;collapsible=0;dropTarget=0;points=[[0,0.5],[1,0.5]];portConstraint=eastwest;top=0;left=0;right=0;bottom=1;" parent="8_B0k8QxM6QDgd3OKFG0-20" vertex="1">
          <mxGeometry y="30" width="180" height="30" as="geometry" />
        </mxCell>
        <mxCell id="8_B0k8QxM6QDgd3OKFG0-22" value="PK" style="shape=partialRectangle;connectable=0;fillColor=none;top=0;left=0;bottom=0;right=0;fontStyle=1;overflow=hidden;whiteSpace=wrap;html=1;" parent="8_B0k8QxM6QDgd3OKFG0-21" vertex="1">
          <mxGeometry width="30" height="30" as="geometry">
            <mxRectangle width="30" height="30" as="alternateBounds" />
          </mxGeometry>
        </mxCell>
        <mxCell id="8_B0k8QxM6QDgd3OKFG0-23" value="ID" style="shape=partialRectangle;connectable=0;fillColor=none;top=0;left=0;bottom=0;right=0;align=left;spacingLeft=6;fontStyle=5;overflow=hidden;whiteSpace=wrap;html=1;" parent="8_B0k8QxM6QDgd3OKFG0-21" vertex="1">
          <mxGeometry x="30" width="150" height="30" as="geometry">
            <mxRectangle width="150" height="30" as="alternateBounds" />
          </mxGeometry>
        </mxCell>
        <mxCell id="67jeWISCJ-B0vMnym0nd-20" value="" style="shape=tableRow;horizontal=0;startSize=0;swimlaneHead=0;swimlaneBody=0;fillColor=none;collapsible=0;dropTarget=0;points=[[0,0.5],[1,0.5]];portConstraint=eastwest;top=0;left=0;right=0;bottom=0;" parent="8_B0k8QxM6QDgd3OKFG0-20" vertex="1">
          <mxGeometry y="60" width="180" height="30" as="geometry" />
        </mxCell>
        <mxCell id="67jeWISCJ-B0vMnym0nd-21" value="FK" style="shape=partialRectangle;connectable=0;fillColor=none;top=0;left=0;bottom=0;right=0;fontStyle=0;overflow=hidden;whiteSpace=wrap;html=1;" parent="67jeWISCJ-B0vMnym0nd-20" vertex="1">
          <mxGeometry width="30" height="30" as="geometry">
            <mxRectangle width="30" height="30" as="alternateBounds" />
          </mxGeometry>
        </mxCell>
        <mxCell id="67jeWISCJ-B0vMnym0nd-22" value="AccountID" style="shape=partialRectangle;connectable=0;fillColor=none;top=0;left=0;bottom=0;right=0;align=left;spacingLeft=6;fontStyle=0;overflow=hidden;whiteSpace=wrap;html=1;" parent="67jeWISCJ-B0vMnym0nd-20" vertex="1">
          <mxGeometry x="30" width="150" height="30" as="geometry">
            <mxRectangle width="150" height="30" as="alternateBounds" />
          </mxGeometry>
        </mxCell>
        <mxCell id="67jeWISCJ-B0vMnym0nd-1" value="" style="shape=tableRow;horizontal=0;startSize=0;swimlaneHead=0;swimlaneBody=0;fillColor=none;collapsible=0;dropTarget=0;points=[[0,0.5],[1,0.5]];portConstraint=eastwest;top=0;left=0;right=0;bottom=0;" parent="8_B0k8QxM6QDgd3OKFG0-20" vertex="1">
          <mxGeometry y="90" width="180" height="30" as="geometry" />
        </mxCell>
        <mxCell id="67jeWISCJ-B0vMnym0nd-2" value="" style="shape=partialRectangle;connectable=0;fillColor=none;top=0;left=0;bottom=0;right=0;editable=1;overflow=hidden;" parent="67jeWISCJ-B0vMnym0nd-1" vertex="1">
          <mxGeometry width="30" height="30" as="geometry">
            <mxRectangle width="30" height="30" as="alternateBounds" />
          </mxGeometry>
        </mxCell>
        <mxCell id="67jeWISCJ-B0vMnym0nd-3" value="...." style="shape=partialRectangle;connectable=0;fillColor=none;top=0;left=0;bottom=0;right=0;align=left;spacingLeft=6;overflow=hidden;" parent="67jeWISCJ-B0vMnym0nd-1" vertex="1">
          <mxGeometry x="30" width="150" height="30" as="geometry">
            <mxRectangle width="150" height="30" as="alternateBounds" />
          </mxGeometry>
        </mxCell>
        <mxCell id="67jeWISCJ-B0vMnym0nd-4" value="Account" style="shape=table;startSize=30;container=1;collapsible=1;childLayout=tableLayout;fixedRows=1;rowLines=0;fontStyle=1;align=center;resizeLast=1;html=1;" parent="1" vertex="1">
          <mxGeometry x="-1359" y="-609" width="180" height="270" as="geometry" />
        </mxCell>
        <mxCell id="67jeWISCJ-B0vMnym0nd-5" value="" style="shape=tableRow;horizontal=0;startSize=0;swimlaneHead=0;swimlaneBody=0;fillColor=none;collapsible=0;dropTarget=0;points=[[0,0.5],[1,0.5]];portConstraint=eastwest;top=0;left=0;right=0;bottom=1;" parent="67jeWISCJ-B0vMnym0nd-4" vertex="1">
          <mxGeometry y="30" width="180" height="30" as="geometry" />
        </mxCell>
        <mxCell id="67jeWISCJ-B0vMnym0nd-6" value="PK" style="shape=partialRectangle;connectable=0;fillColor=none;top=0;left=0;bottom=0;right=0;fontStyle=1;overflow=hidden;whiteSpace=wrap;html=1;" parent="67jeWISCJ-B0vMnym0nd-5" vertex="1">
          <mxGeometry width="30" height="30" as="geometry">
            <mxRectangle width="30" height="30" as="alternateBounds" />
          </mxGeometry>
        </mxCell>
        <mxCell id="67jeWISCJ-B0vMnym0nd-7" value="ID" style="shape=partialRectangle;connectable=0;fillColor=none;top=0;left=0;bottom=0;right=0;align=left;spacingLeft=6;fontStyle=5;overflow=hidden;whiteSpace=wrap;html=1;" parent="67jeWISCJ-B0vMnym0nd-5" vertex="1">
          <mxGeometry x="30" width="150" height="30" as="geometry">
            <mxRectangle width="150" height="30" as="alternateBounds" />
          </mxGeometry>
        </mxCell>
        <mxCell id="67jeWISCJ-B0vMnym0nd-8" value="" style="shape=tableRow;horizontal=0;startSize=0;swimlaneHead=0;swimlaneBody=0;fillColor=none;collapsible=0;dropTarget=0;points=[[0,0.5],[1,0.5]];portConstraint=eastwest;top=0;left=0;right=0;bottom=0;" parent="67jeWISCJ-B0vMnym0nd-4" vertex="1">
          <mxGeometry y="60" width="180" height="30" as="geometry" />
        </mxCell>
        <mxCell id="67jeWISCJ-B0vMnym0nd-9" value="" style="shape=partialRectangle;connectable=0;fillColor=none;top=0;left=0;bottom=0;right=0;editable=1;overflow=hidden;whiteSpace=wrap;html=1;" parent="67jeWISCJ-B0vMnym0nd-8" vertex="1">
          <mxGeometry width="30" height="30" as="geometry">
            <mxRectangle width="30" height="30" as="alternateBounds" />
          </mxGeometry>
        </mxCell>
        <mxCell id="67jeWISCJ-B0vMnym0nd-10" value="AccountType" style="shape=partialRectangle;connectable=0;fillColor=none;top=0;left=0;bottom=0;right=0;align=left;spacingLeft=6;overflow=hidden;whiteSpace=wrap;html=1;" parent="67jeWISCJ-B0vMnym0nd-8" vertex="1">
          <mxGeometry x="30" width="150" height="30" as="geometry">
            <mxRectangle width="150" height="30" as="alternateBounds" />
          </mxGeometry>
        </mxCell>
        <mxCell id="67jeWISCJ-B0vMnym0nd-11" value="" style="shape=tableRow;horizontal=0;startSize=0;swimlaneHead=0;swimlaneBody=0;fillColor=none;collapsible=0;dropTarget=0;points=[[0,0.5],[1,0.5]];portConstraint=eastwest;top=0;left=0;right=0;bottom=0;" parent="67jeWISCJ-B0vMnym0nd-4" vertex="1">
          <mxGeometry y="90" width="180" height="30" as="geometry" />
        </mxCell>
        <mxCell id="67jeWISCJ-B0vMnym0nd-12" value="" style="shape=partialRectangle;connectable=0;fillColor=none;top=0;left=0;bottom=0;right=0;editable=1;overflow=hidden;whiteSpace=wrap;html=1;" parent="67jeWISCJ-B0vMnym0nd-11" vertex="1">
          <mxGeometry width="30" height="30" as="geometry">
            <mxRectangle width="30" height="30" as="alternateBounds" />
          </mxGeometry>
        </mxCell>
        <mxCell id="67jeWISCJ-B0vMnym0nd-13" value="Name" style="shape=partialRectangle;connectable=0;fillColor=none;top=0;left=0;bottom=0;right=0;align=left;spacingLeft=6;overflow=hidden;whiteSpace=wrap;html=1;" parent="67jeWISCJ-B0vMnym0nd-11" vertex="1">
          <mxGeometry x="30" width="150" height="30" as="geometry">
            <mxRectangle width="150" height="30" as="alternateBounds" />
          </mxGeometry>
        </mxCell>
        <mxCell id="67jeWISCJ-B0vMnym0nd-14" value="" style="shape=tableRow;horizontal=0;startSize=0;swimlaneHead=0;swimlaneBody=0;fillColor=none;collapsible=0;dropTarget=0;points=[[0,0.5],[1,0.5]];portConstraint=eastwest;top=0;left=0;right=0;bottom=0;" parent="67jeWISCJ-B0vMnym0nd-4" vertex="1">
          <mxGeometry y="120" width="180" height="30" as="geometry" />
        </mxCell>
        <mxCell id="67jeWISCJ-B0vMnym0nd-15" value="" style="shape=partialRectangle;connectable=0;fillColor=none;top=0;left=0;bottom=0;right=0;editable=1;overflow=hidden;whiteSpace=wrap;html=1;" parent="67jeWISCJ-B0vMnym0nd-14" vertex="1">
          <mxGeometry width="30" height="30" as="geometry">
            <mxRectangle width="30" height="30" as="alternateBounds" />
          </mxGeometry>
        </mxCell>
        <mxCell id="67jeWISCJ-B0vMnym0nd-16" value="Email" style="shape=partialRectangle;connectable=0;fillColor=none;top=0;left=0;bottom=0;right=0;align=left;spacingLeft=6;overflow=hidden;whiteSpace=wrap;html=1;" parent="67jeWISCJ-B0vMnym0nd-14" vertex="1">
          <mxGeometry x="30" width="150" height="30" as="geometry">
            <mxRectangle width="150" height="30" as="alternateBounds" />
          </mxGeometry>
        </mxCell>
        <mxCell id="67jeWISCJ-B0vMnym0nd-17" value="" style="shape=tableRow;horizontal=0;startSize=0;swimlaneHead=0;swimlaneBody=0;fillColor=none;collapsible=0;dropTarget=0;points=[[0,0.5],[1,0.5]];portConstraint=eastwest;top=0;left=0;right=0;bottom=0;" parent="67jeWISCJ-B0vMnym0nd-4" vertex="1">
          <mxGeometry y="150" width="180" height="30" as="geometry" />
        </mxCell>
        <mxCell id="67jeWISCJ-B0vMnym0nd-18" value="" style="shape=partialRectangle;connectable=0;fillColor=none;top=0;left=0;bottom=0;right=0;editable=1;overflow=hidden;" parent="67jeWISCJ-B0vMnym0nd-17" vertex="1">
          <mxGeometry width="30" height="30" as="geometry">
            <mxRectangle width="30" height="30" as="alternateBounds" />
          </mxGeometry>
        </mxCell>
        <mxCell id="67jeWISCJ-B0vMnym0nd-19" value="Password" style="shape=partialRectangle;connectable=0;fillColor=none;top=0;left=0;bottom=0;right=0;align=left;spacingLeft=6;overflow=hidden;" parent="67jeWISCJ-B0vMnym0nd-17" vertex="1">
          <mxGeometry x="30" width="150" height="30" as="geometry">
            <mxRectangle width="150" height="30" as="alternateBounds" />
          </mxGeometry>
        </mxCell>
        <mxCell id="2H5_-cp9eVZmrB60dS0a-1" value="" style="shape=tableRow;horizontal=0;startSize=0;swimlaneHead=0;swimlaneBody=0;fillColor=none;collapsible=0;dropTarget=0;points=[[0,0.5],[1,0.5]];portConstraint=eastwest;top=0;left=0;right=0;bottom=0;" parent="67jeWISCJ-B0vMnym0nd-4" vertex="1">
          <mxGeometry y="180" width="180" height="30" as="geometry" />
        </mxCell>
        <mxCell id="2H5_-cp9eVZmrB60dS0a-2" value="" style="shape=partialRectangle;connectable=0;fillColor=none;top=0;left=0;bottom=0;right=0;editable=1;overflow=hidden;" parent="2H5_-cp9eVZmrB60dS0a-1" vertex="1">
          <mxGeometry width="30" height="30" as="geometry">
            <mxRectangle width="30" height="30" as="alternateBounds" />
          </mxGeometry>
        </mxCell>
        <mxCell id="2H5_-cp9eVZmrB60dS0a-3" value="Rating" style="shape=partialRectangle;connectable=0;fillColor=none;top=0;left=0;bottom=0;right=0;align=left;spacingLeft=6;overflow=hidden;" parent="2H5_-cp9eVZmrB60dS0a-1" vertex="1">
          <mxGeometry x="30" width="150" height="30" as="geometry">
            <mxRectangle width="150" height="30" as="alternateBounds" />
          </mxGeometry>
        </mxCell>
        <mxCell id="LLjUIJLtnGVvc8a8mBEm-17" value="" style="shape=tableRow;horizontal=0;startSize=0;swimlaneHead=0;swimlaneBody=0;fillColor=none;collapsible=0;dropTarget=0;points=[[0,0.5],[1,0.5]];portConstraint=eastwest;top=0;left=0;right=0;bottom=0;" vertex="1" parent="67jeWISCJ-B0vMnym0nd-4">
          <mxGeometry y="210" width="180" height="30" as="geometry" />
        </mxCell>
        <mxCell id="LLjUIJLtnGVvc8a8mBEm-18" value="" style="shape=partialRectangle;connectable=0;fillColor=none;top=0;left=0;bottom=0;right=0;editable=1;overflow=hidden;" vertex="1" parent="LLjUIJLtnGVvc8a8mBEm-17">
          <mxGeometry width="30" height="30" as="geometry">
            <mxRectangle width="30" height="30" as="alternateBounds" />
          </mxGeometry>
        </mxCell>
        <mxCell id="LLjUIJLtnGVvc8a8mBEm-19" value="ProfileImageURL " style="shape=partialRectangle;connectable=0;fillColor=none;top=0;left=0;bottom=0;right=0;align=left;spacingLeft=6;overflow=hidden;" vertex="1" parent="LLjUIJLtnGVvc8a8mBEm-17">
          <mxGeometry x="30" width="150" height="30" as="geometry">
            <mxRectangle width="150" height="30" as="alternateBounds" />
          </mxGeometry>
        </mxCell>
        <mxCell id="67jeWISCJ-B0vMnym0nd-24" value="" style="shape=tableRow;horizontal=0;startSize=0;swimlaneHead=0;swimlaneBody=0;fillColor=none;collapsible=0;dropTarget=0;points=[[0,0.5],[1,0.5]];portConstraint=eastwest;top=0;left=0;right=0;bottom=0;" parent="67jeWISCJ-B0vMnym0nd-4" vertex="1">
          <mxGeometry y="240" width="180" height="30" as="geometry" />
        </mxCell>
        <mxCell id="67jeWISCJ-B0vMnym0nd-25" value="" style="shape=partialRectangle;connectable=0;fillColor=none;top=0;left=0;bottom=0;right=0;editable=1;overflow=hidden;" parent="67jeWISCJ-B0vMnym0nd-24" vertex="1">
          <mxGeometry width="30" height="30" as="geometry">
            <mxRectangle width="30" height="30" as="alternateBounds" />
          </mxGeometry>
        </mxCell>
        <mxCell id="67jeWISCJ-B0vMnym0nd-26" value="...." style="shape=partialRectangle;connectable=0;fillColor=none;top=0;left=0;bottom=0;right=0;align=left;spacingLeft=6;overflow=hidden;" parent="67jeWISCJ-B0vMnym0nd-24" vertex="1">
          <mxGeometry x="30" width="150" height="30" as="geometry">
            <mxRectangle width="150" height="30" as="alternateBounds" />
          </mxGeometry>
        </mxCell>
        <mxCell id="67jeWISCJ-B0vMnym0nd-23" value="" style="edgeStyle=entityRelationEdgeStyle;fontSize=12;html=1;endArrow=ERmandOne;startArrow=ERmandOne;rounded=0;" parent="1" source="67jeWISCJ-B0vMnym0nd-5" target="67jeWISCJ-B0vMnym0nd-20" edge="1">
          <mxGeometry width="100" height="100" relative="1" as="geometry">
            <mxPoint x="-1138" y="-479" as="sourcePoint" />
            <mxPoint x="-1038" y="-579" as="targetPoint" />
          </mxGeometry>
        </mxCell>
        <mxCell id="67jeWISCJ-B0vMnym0nd-27" value="Restaurant" style="shape=table;startSize=30;container=1;collapsible=1;childLayout=tableLayout;fixedRows=1;rowLines=0;fontStyle=1;align=center;resizeLast=1;html=1;" parent="1" vertex="1">
          <mxGeometry x="-1035" y="-510" width="180" height="180" as="geometry" />
        </mxCell>
        <mxCell id="67jeWISCJ-B0vMnym0nd-28" value="" style="shape=tableRow;horizontal=0;startSize=0;swimlaneHead=0;swimlaneBody=0;fillColor=none;collapsible=0;dropTarget=0;points=[[0,0.5],[1,0.5]];portConstraint=eastwest;top=0;left=0;right=0;bottom=1;" parent="67jeWISCJ-B0vMnym0nd-27" vertex="1">
          <mxGeometry y="30" width="180" height="30" as="geometry" />
        </mxCell>
        <mxCell id="67jeWISCJ-B0vMnym0nd-29" value="PK" style="shape=partialRectangle;connectable=0;fillColor=none;top=0;left=0;bottom=0;right=0;fontStyle=1;overflow=hidden;whiteSpace=wrap;html=1;" parent="67jeWISCJ-B0vMnym0nd-28" vertex="1">
          <mxGeometry width="30" height="30" as="geometry">
            <mxRectangle width="30" height="30" as="alternateBounds" />
          </mxGeometry>
        </mxCell>
        <mxCell id="67jeWISCJ-B0vMnym0nd-30" value="ID" style="shape=partialRectangle;connectable=0;fillColor=none;top=0;left=0;bottom=0;right=0;align=left;spacingLeft=6;fontStyle=5;overflow=hidden;whiteSpace=wrap;html=1;" parent="67jeWISCJ-B0vMnym0nd-28" vertex="1">
          <mxGeometry x="30" width="150" height="30" as="geometry">
            <mxRectangle width="150" height="30" as="alternateBounds" />
          </mxGeometry>
        </mxCell>
        <mxCell id="67jeWISCJ-B0vMnym0nd-64" value="" style="shape=tableRow;horizontal=0;startSize=0;swimlaneHead=0;swimlaneBody=0;fillColor=none;collapsible=0;dropTarget=0;points=[[0,0.5],[1,0.5]];portConstraint=eastwest;top=0;left=0;right=0;bottom=0;" parent="67jeWISCJ-B0vMnym0nd-27" vertex="1">
          <mxGeometry y="60" width="180" height="30" as="geometry" />
        </mxCell>
        <mxCell id="67jeWISCJ-B0vMnym0nd-65" value="FK" style="shape=partialRectangle;connectable=0;fillColor=none;top=0;left=0;bottom=0;right=0;fontStyle=0;overflow=hidden;whiteSpace=wrap;html=1;" parent="67jeWISCJ-B0vMnym0nd-64" vertex="1">
          <mxGeometry width="30" height="30" as="geometry">
            <mxRectangle width="30" height="30" as="alternateBounds" />
          </mxGeometry>
        </mxCell>
        <mxCell id="67jeWISCJ-B0vMnym0nd-66" value="AccountID" style="shape=partialRectangle;connectable=0;fillColor=none;top=0;left=0;bottom=0;right=0;align=left;spacingLeft=6;fontStyle=0;overflow=hidden;whiteSpace=wrap;html=1;" parent="67jeWISCJ-B0vMnym0nd-64" vertex="1">
          <mxGeometry x="30" width="150" height="30" as="geometry">
            <mxRectangle width="150" height="30" as="alternateBounds" />
          </mxGeometry>
        </mxCell>
        <mxCell id="67jeWISCJ-B0vMnym0nd-73" value="" style="shape=tableRow;horizontal=0;startSize=0;swimlaneHead=0;swimlaneBody=0;fillColor=none;collapsible=0;dropTarget=0;points=[[0,0.5],[1,0.5]];portConstraint=eastwest;top=0;left=0;right=0;bottom=0;" parent="67jeWISCJ-B0vMnym0nd-27" vertex="1">
          <mxGeometry y="90" width="180" height="30" as="geometry" />
        </mxCell>
        <mxCell id="67jeWISCJ-B0vMnym0nd-74" value="FK" style="shape=partialRectangle;connectable=0;fillColor=none;top=0;left=0;bottom=0;right=0;fontStyle=0;overflow=hidden;whiteSpace=wrap;html=1;" parent="67jeWISCJ-B0vMnym0nd-73" vertex="1">
          <mxGeometry width="30" height="30" as="geometry">
            <mxRectangle width="30" height="30" as="alternateBounds" />
          </mxGeometry>
        </mxCell>
        <mxCell id="67jeWISCJ-B0vMnym0nd-75" value="LocationID" style="shape=partialRectangle;connectable=0;fillColor=none;top=0;left=0;bottom=0;right=0;align=left;spacingLeft=6;fontStyle=0;overflow=hidden;whiteSpace=wrap;html=1;" parent="67jeWISCJ-B0vMnym0nd-73" vertex="1">
          <mxGeometry x="30" width="150" height="30" as="geometry">
            <mxRectangle width="150" height="30" as="alternateBounds" />
          </mxGeometry>
        </mxCell>
        <mxCell id="67jeWISCJ-B0vMnym0nd-67" value="" style="shape=tableRow;horizontal=0;startSize=0;swimlaneHead=0;swimlaneBody=0;fillColor=none;collapsible=0;dropTarget=0;points=[[0,0.5],[1,0.5]];portConstraint=eastwest;top=0;left=0;right=0;bottom=0;" parent="67jeWISCJ-B0vMnym0nd-27" vertex="1">
          <mxGeometry y="120" width="180" height="30" as="geometry" />
        </mxCell>
        <mxCell id="67jeWISCJ-B0vMnym0nd-68" value="" style="shape=partialRectangle;connectable=0;fillColor=none;top=0;left=0;bottom=0;right=0;editable=1;overflow=hidden;" parent="67jeWISCJ-B0vMnym0nd-67" vertex="1">
          <mxGeometry width="30" height="30" as="geometry">
            <mxRectangle width="30" height="30" as="alternateBounds" />
          </mxGeometry>
        </mxCell>
        <mxCell id="67jeWISCJ-B0vMnym0nd-69" value="IsAvailable" style="shape=partialRectangle;connectable=0;fillColor=none;top=0;left=0;bottom=0;right=0;align=left;spacingLeft=6;overflow=hidden;" parent="67jeWISCJ-B0vMnym0nd-67" vertex="1">
          <mxGeometry x="30" width="150" height="30" as="geometry">
            <mxRectangle width="150" height="30" as="alternateBounds" />
          </mxGeometry>
        </mxCell>
        <mxCell id="67jeWISCJ-B0vMnym0nd-34" value="" style="shape=tableRow;horizontal=0;startSize=0;swimlaneHead=0;swimlaneBody=0;fillColor=none;collapsible=0;dropTarget=0;points=[[0,0.5],[1,0.5]];portConstraint=eastwest;top=0;left=0;right=0;bottom=0;" parent="67jeWISCJ-B0vMnym0nd-27" vertex="1">
          <mxGeometry y="150" width="180" height="30" as="geometry" />
        </mxCell>
        <mxCell id="67jeWISCJ-B0vMnym0nd-35" value="" style="shape=partialRectangle;connectable=0;fillColor=none;top=0;left=0;bottom=0;right=0;editable=1;overflow=hidden;whiteSpace=wrap;html=1;" parent="67jeWISCJ-B0vMnym0nd-34" vertex="1">
          <mxGeometry width="30" height="30" as="geometry">
            <mxRectangle width="30" height="30" as="alternateBounds" />
          </mxGeometry>
        </mxCell>
        <mxCell id="67jeWISCJ-B0vMnym0nd-36" value="...." style="shape=partialRectangle;connectable=0;fillColor=none;top=0;left=0;bottom=0;right=0;align=left;spacingLeft=6;overflow=hidden;whiteSpace=wrap;html=1;" parent="67jeWISCJ-B0vMnym0nd-34" vertex="1">
          <mxGeometry x="30" width="150" height="30" as="geometry">
            <mxRectangle width="150" height="30" as="alternateBounds" />
          </mxGeometry>
        </mxCell>
        <mxCell id="67jeWISCJ-B0vMnym0nd-40" value="" style="edgeStyle=entityRelationEdgeStyle;fontSize=12;html=1;endArrow=ERmandOne;startArrow=ERmandOne;rounded=0;" parent="1" source="67jeWISCJ-B0vMnym0nd-5" target="67jeWISCJ-B0vMnym0nd-64" edge="1">
          <mxGeometry width="100" height="100" relative="1" as="geometry">
            <mxPoint x="-1157" y="-706" as="sourcePoint" />
            <mxPoint x="-1033" y="-380" as="targetPoint" />
          </mxGeometry>
        </mxCell>
        <mxCell id="67jeWISCJ-B0vMnym0nd-44" value="" style="shape=tableRow;horizontal=0;startSize=0;swimlaneHead=0;swimlaneBody=0;fillColor=none;collapsible=0;dropTarget=0;points=[[0,0.5],[1,0.5]];portConstraint=eastwest;top=0;left=0;right=0;bottom=0;" parent="1" vertex="1">
          <mxGeometry x="-1029" y="-661" width="180" height="30" as="geometry" />
        </mxCell>
        <mxCell id="67jeWISCJ-B0vMnym0nd-45" value="" style="shape=partialRectangle;connectable=0;fillColor=none;top=0;left=0;bottom=0;right=0;editable=1;overflow=hidden;" parent="67jeWISCJ-B0vMnym0nd-44" vertex="1">
          <mxGeometry width="30" height="30" as="geometry">
            <mxRectangle width="30" height="30" as="alternateBounds" />
          </mxGeometry>
        </mxCell>
        <mxCell id="67jeWISCJ-B0vMnym0nd-47" value="&lt;div&gt;DeliveryMan&lt;/div&gt;" style="shape=table;startSize=30;container=1;collapsible=1;childLayout=tableLayout;fixedRows=1;rowLines=0;fontStyle=1;align=center;resizeLast=1;html=1;" parent="1" vertex="1">
          <mxGeometry x="-1035" y="-33" width="180" height="150" as="geometry" />
        </mxCell>
        <mxCell id="67jeWISCJ-B0vMnym0nd-48" value="" style="shape=tableRow;horizontal=0;startSize=0;swimlaneHead=0;swimlaneBody=0;fillColor=none;collapsible=0;dropTarget=0;points=[[0,0.5],[1,0.5]];portConstraint=eastwest;top=0;left=0;right=0;bottom=1;" parent="67jeWISCJ-B0vMnym0nd-47" vertex="1">
          <mxGeometry y="30" width="180" height="30" as="geometry" />
        </mxCell>
        <mxCell id="67jeWISCJ-B0vMnym0nd-49" value="PK" style="shape=partialRectangle;connectable=0;fillColor=none;top=0;left=0;bottom=0;right=0;fontStyle=1;overflow=hidden;whiteSpace=wrap;html=1;" parent="67jeWISCJ-B0vMnym0nd-48" vertex="1">
          <mxGeometry width="30" height="30" as="geometry">
            <mxRectangle width="30" height="30" as="alternateBounds" />
          </mxGeometry>
        </mxCell>
        <mxCell id="67jeWISCJ-B0vMnym0nd-50" value="ID" style="shape=partialRectangle;connectable=0;fillColor=none;top=0;left=0;bottom=0;right=0;align=left;spacingLeft=6;fontStyle=5;overflow=hidden;whiteSpace=wrap;html=1;" parent="67jeWISCJ-B0vMnym0nd-48" vertex="1">
          <mxGeometry x="30" width="150" height="30" as="geometry">
            <mxRectangle width="150" height="30" as="alternateBounds" />
          </mxGeometry>
        </mxCell>
        <mxCell id="67jeWISCJ-B0vMnym0nd-61" value="" style="shape=tableRow;horizontal=0;startSize=0;swimlaneHead=0;swimlaneBody=0;fillColor=none;collapsible=0;dropTarget=0;points=[[0,0.5],[1,0.5]];portConstraint=eastwest;top=0;left=0;right=0;bottom=0;" parent="67jeWISCJ-B0vMnym0nd-47" vertex="1">
          <mxGeometry y="60" width="180" height="30" as="geometry" />
        </mxCell>
        <mxCell id="67jeWISCJ-B0vMnym0nd-62" value="FK" style="shape=partialRectangle;connectable=0;fillColor=none;top=0;left=0;bottom=0;right=0;fontStyle=0;overflow=hidden;whiteSpace=wrap;html=1;" parent="67jeWISCJ-B0vMnym0nd-61" vertex="1">
          <mxGeometry width="30" height="30" as="geometry">
            <mxRectangle width="30" height="30" as="alternateBounds" />
          </mxGeometry>
        </mxCell>
        <mxCell id="67jeWISCJ-B0vMnym0nd-63" value="AccountID" style="shape=partialRectangle;connectable=0;fillColor=none;top=0;left=0;bottom=0;right=0;align=left;spacingLeft=6;fontStyle=0;overflow=hidden;whiteSpace=wrap;html=1;" parent="67jeWISCJ-B0vMnym0nd-61" vertex="1">
          <mxGeometry x="30" width="150" height="30" as="geometry">
            <mxRectangle width="150" height="30" as="alternateBounds" />
          </mxGeometry>
        </mxCell>
        <mxCell id="67jeWISCJ-B0vMnym0nd-270" value="" style="shape=tableRow;horizontal=0;startSize=0;swimlaneHead=0;swimlaneBody=0;fillColor=none;collapsible=0;dropTarget=0;points=[[0,0.5],[1,0.5]];portConstraint=eastwest;top=0;left=0;right=0;bottom=0;" parent="67jeWISCJ-B0vMnym0nd-47" vertex="1">
          <mxGeometry y="90" width="180" height="30" as="geometry" />
        </mxCell>
        <mxCell id="67jeWISCJ-B0vMnym0nd-271" value="" style="shape=partialRectangle;connectable=0;fillColor=none;top=0;left=0;bottom=0;right=0;editable=1;overflow=hidden;" parent="67jeWISCJ-B0vMnym0nd-270" vertex="1">
          <mxGeometry width="30" height="30" as="geometry">
            <mxRectangle width="30" height="30" as="alternateBounds" />
          </mxGeometry>
        </mxCell>
        <mxCell id="67jeWISCJ-B0vMnym0nd-272" value="IsAvailable" style="shape=partialRectangle;connectable=0;fillColor=none;top=0;left=0;bottom=0;right=0;align=left;spacingLeft=6;overflow=hidden;" parent="67jeWISCJ-B0vMnym0nd-270" vertex="1">
          <mxGeometry x="30" width="150" height="30" as="geometry">
            <mxRectangle width="150" height="30" as="alternateBounds" />
          </mxGeometry>
        </mxCell>
        <mxCell id="67jeWISCJ-B0vMnym0nd-57" value="" style="shape=tableRow;horizontal=0;startSize=0;swimlaneHead=0;swimlaneBody=0;fillColor=none;collapsible=0;dropTarget=0;points=[[0,0.5],[1,0.5]];portConstraint=eastwest;top=0;left=0;right=0;bottom=0;" parent="67jeWISCJ-B0vMnym0nd-47" vertex="1">
          <mxGeometry y="120" width="180" height="30" as="geometry" />
        </mxCell>
        <mxCell id="67jeWISCJ-B0vMnym0nd-58" value="" style="shape=partialRectangle;connectable=0;fillColor=none;top=0;left=0;bottom=0;right=0;editable=1;overflow=hidden;whiteSpace=wrap;html=1;" parent="67jeWISCJ-B0vMnym0nd-57" vertex="1">
          <mxGeometry width="30" height="30" as="geometry">
            <mxRectangle width="30" height="30" as="alternateBounds" />
          </mxGeometry>
        </mxCell>
        <mxCell id="67jeWISCJ-B0vMnym0nd-59" value="..." style="shape=partialRectangle;connectable=0;fillColor=none;top=0;left=0;bottom=0;right=0;align=left;spacingLeft=6;overflow=hidden;whiteSpace=wrap;html=1;" parent="67jeWISCJ-B0vMnym0nd-57" vertex="1">
          <mxGeometry x="30" width="150" height="30" as="geometry">
            <mxRectangle width="150" height="30" as="alternateBounds" />
          </mxGeometry>
        </mxCell>
        <mxCell id="67jeWISCJ-B0vMnym0nd-60" value="" style="edgeStyle=entityRelationEdgeStyle;fontSize=12;html=1;endArrow=ERmandOne;startArrow=ERmandOne;rounded=0;" parent="1" source="67jeWISCJ-B0vMnym0nd-5" target="67jeWISCJ-B0vMnym0nd-61" edge="1">
          <mxGeometry width="100" height="100" relative="1" as="geometry">
            <mxPoint x="-1169" y="-554" as="sourcePoint" />
            <mxPoint x="-1033" y="-133" as="targetPoint" />
          </mxGeometry>
        </mxCell>
        <mxCell id="67jeWISCJ-B0vMnym0nd-76" value="Location" style="shape=table;startSize=30;container=1;collapsible=1;childLayout=tableLayout;fixedRows=1;rowLines=0;fontStyle=1;align=center;resizeLast=1;html=1;" parent="1" vertex="1">
          <mxGeometry x="-411" y="-458" width="180" height="240" as="geometry" />
        </mxCell>
        <mxCell id="67jeWISCJ-B0vMnym0nd-77" value="" style="shape=tableRow;horizontal=0;startSize=0;swimlaneHead=0;swimlaneBody=0;fillColor=none;collapsible=0;dropTarget=0;points=[[0,0.5],[1,0.5]];portConstraint=eastwest;top=0;left=0;right=0;bottom=1;" parent="67jeWISCJ-B0vMnym0nd-76" vertex="1">
          <mxGeometry y="30" width="180" height="30" as="geometry" />
        </mxCell>
        <mxCell id="67jeWISCJ-B0vMnym0nd-78" value="PK" style="shape=partialRectangle;connectable=0;fillColor=none;top=0;left=0;bottom=0;right=0;fontStyle=1;overflow=hidden;whiteSpace=wrap;html=1;" parent="67jeWISCJ-B0vMnym0nd-77" vertex="1">
          <mxGeometry width="30" height="30" as="geometry">
            <mxRectangle width="30" height="30" as="alternateBounds" />
          </mxGeometry>
        </mxCell>
        <mxCell id="67jeWISCJ-B0vMnym0nd-79" value="ID" style="shape=partialRectangle;connectable=0;fillColor=none;top=0;left=0;bottom=0;right=0;align=left;spacingLeft=6;fontStyle=5;overflow=hidden;whiteSpace=wrap;html=1;" parent="67jeWISCJ-B0vMnym0nd-77" vertex="1">
          <mxGeometry x="30" width="150" height="30" as="geometry">
            <mxRectangle width="150" height="30" as="alternateBounds" />
          </mxGeometry>
        </mxCell>
        <mxCell id="67jeWISCJ-B0vMnym0nd-80" value="" style="shape=tableRow;horizontal=0;startSize=0;swimlaneHead=0;swimlaneBody=0;fillColor=none;collapsible=0;dropTarget=0;points=[[0,0.5],[1,0.5]];portConstraint=eastwest;top=0;left=0;right=0;bottom=0;" parent="67jeWISCJ-B0vMnym0nd-76" vertex="1">
          <mxGeometry y="60" width="180" height="30" as="geometry" />
        </mxCell>
        <mxCell id="67jeWISCJ-B0vMnym0nd-81" value="" style="shape=partialRectangle;connectable=0;fillColor=none;top=0;left=0;bottom=0;right=0;editable=1;overflow=hidden;whiteSpace=wrap;html=1;" parent="67jeWISCJ-B0vMnym0nd-80" vertex="1">
          <mxGeometry width="30" height="30" as="geometry">
            <mxRectangle width="30" height="30" as="alternateBounds" />
          </mxGeometry>
        </mxCell>
        <mxCell id="67jeWISCJ-B0vMnym0nd-82" value="Latitude " style="shape=partialRectangle;connectable=0;fillColor=none;top=0;left=0;bottom=0;right=0;align=left;spacingLeft=6;overflow=hidden;whiteSpace=wrap;html=1;" parent="67jeWISCJ-B0vMnym0nd-80" vertex="1">
          <mxGeometry x="30" width="150" height="30" as="geometry">
            <mxRectangle width="150" height="30" as="alternateBounds" />
          </mxGeometry>
        </mxCell>
        <mxCell id="67jeWISCJ-B0vMnym0nd-83" value="" style="shape=tableRow;horizontal=0;startSize=0;swimlaneHead=0;swimlaneBody=0;fillColor=none;collapsible=0;dropTarget=0;points=[[0,0.5],[1,0.5]];portConstraint=eastwest;top=0;left=0;right=0;bottom=0;" parent="67jeWISCJ-B0vMnym0nd-76" vertex="1">
          <mxGeometry y="90" width="180" height="30" as="geometry" />
        </mxCell>
        <mxCell id="67jeWISCJ-B0vMnym0nd-84" value="" style="shape=partialRectangle;connectable=0;fillColor=none;top=0;left=0;bottom=0;right=0;editable=1;overflow=hidden;whiteSpace=wrap;html=1;" parent="67jeWISCJ-B0vMnym0nd-83" vertex="1">
          <mxGeometry width="30" height="30" as="geometry">
            <mxRectangle width="30" height="30" as="alternateBounds" />
          </mxGeometry>
        </mxCell>
        <mxCell id="67jeWISCJ-B0vMnym0nd-85" value="Longitude " style="shape=partialRectangle;connectable=0;fillColor=none;top=0;left=0;bottom=0;right=0;align=left;spacingLeft=6;overflow=hidden;whiteSpace=wrap;html=1;" parent="67jeWISCJ-B0vMnym0nd-83" vertex="1">
          <mxGeometry x="30" width="150" height="30" as="geometry">
            <mxRectangle width="150" height="30" as="alternateBounds" />
          </mxGeometry>
        </mxCell>
        <mxCell id="67jeWISCJ-B0vMnym0nd-86" value="" style="shape=tableRow;horizontal=0;startSize=0;swimlaneHead=0;swimlaneBody=0;fillColor=none;collapsible=0;dropTarget=0;points=[[0,0.5],[1,0.5]];portConstraint=eastwest;top=0;left=0;right=0;bottom=0;" parent="67jeWISCJ-B0vMnym0nd-76" vertex="1">
          <mxGeometry y="120" width="180" height="30" as="geometry" />
        </mxCell>
        <mxCell id="67jeWISCJ-B0vMnym0nd-87" value="" style="shape=partialRectangle;connectable=0;fillColor=none;top=0;left=0;bottom=0;right=0;editable=1;overflow=hidden;whiteSpace=wrap;html=1;" parent="67jeWISCJ-B0vMnym0nd-86" vertex="1">
          <mxGeometry width="30" height="30" as="geometry">
            <mxRectangle width="30" height="30" as="alternateBounds" />
          </mxGeometry>
        </mxCell>
        <mxCell id="67jeWISCJ-B0vMnym0nd-88" value="StreetAddress " style="shape=partialRectangle;connectable=0;fillColor=none;top=0;left=0;bottom=0;right=0;align=left;spacingLeft=6;overflow=hidden;whiteSpace=wrap;html=1;" parent="67jeWISCJ-B0vMnym0nd-86" vertex="1">
          <mxGeometry x="30" width="150" height="30" as="geometry">
            <mxRectangle width="150" height="30" as="alternateBounds" />
          </mxGeometry>
        </mxCell>
        <mxCell id="67jeWISCJ-B0vMnym0nd-89" value="" style="shape=tableRow;horizontal=0;startSize=0;swimlaneHead=0;swimlaneBody=0;fillColor=none;collapsible=0;dropTarget=0;points=[[0,0.5],[1,0.5]];portConstraint=eastwest;top=0;left=0;right=0;bottom=0;" parent="67jeWISCJ-B0vMnym0nd-76" vertex="1">
          <mxGeometry y="150" width="180" height="30" as="geometry" />
        </mxCell>
        <mxCell id="67jeWISCJ-B0vMnym0nd-90" value="" style="shape=partialRectangle;connectable=0;fillColor=none;top=0;left=0;bottom=0;right=0;editable=1;overflow=hidden;" parent="67jeWISCJ-B0vMnym0nd-89" vertex="1">
          <mxGeometry width="30" height="30" as="geometry">
            <mxRectangle width="30" height="30" as="alternateBounds" />
          </mxGeometry>
        </mxCell>
        <mxCell id="67jeWISCJ-B0vMnym0nd-91" value="Area " style="shape=partialRectangle;connectable=0;fillColor=none;top=0;left=0;bottom=0;right=0;align=left;spacingLeft=6;overflow=hidden;" parent="67jeWISCJ-B0vMnym0nd-89" vertex="1">
          <mxGeometry x="30" width="150" height="30" as="geometry">
            <mxRectangle width="150" height="30" as="alternateBounds" />
          </mxGeometry>
        </mxCell>
        <mxCell id="67jeWISCJ-B0vMnym0nd-92" value="" style="shape=tableRow;horizontal=0;startSize=0;swimlaneHead=0;swimlaneBody=0;fillColor=none;collapsible=0;dropTarget=0;points=[[0,0.5],[1,0.5]];portConstraint=eastwest;top=0;left=0;right=0;bottom=0;" parent="67jeWISCJ-B0vMnym0nd-76" vertex="1">
          <mxGeometry y="180" width="180" height="30" as="geometry" />
        </mxCell>
        <mxCell id="67jeWISCJ-B0vMnym0nd-93" value="" style="shape=partialRectangle;connectable=0;fillColor=none;top=0;left=0;bottom=0;right=0;editable=1;overflow=hidden;" parent="67jeWISCJ-B0vMnym0nd-92" vertex="1">
          <mxGeometry width="30" height="30" as="geometry">
            <mxRectangle width="30" height="30" as="alternateBounds" />
          </mxGeometry>
        </mxCell>
        <mxCell id="67jeWISCJ-B0vMnym0nd-94" value="City " style="shape=partialRectangle;connectable=0;fillColor=none;top=0;left=0;bottom=0;right=0;align=left;spacingLeft=6;overflow=hidden;" parent="67jeWISCJ-B0vMnym0nd-92" vertex="1">
          <mxGeometry x="30" width="150" height="30" as="geometry">
            <mxRectangle width="150" height="30" as="alternateBounds" />
          </mxGeometry>
        </mxCell>
        <mxCell id="67jeWISCJ-B0vMnym0nd-95" value="" style="shape=tableRow;horizontal=0;startSize=0;swimlaneHead=0;swimlaneBody=0;fillColor=none;collapsible=0;dropTarget=0;points=[[0,0.5],[1,0.5]];portConstraint=eastwest;top=0;left=0;right=0;bottom=0;" parent="67jeWISCJ-B0vMnym0nd-76" vertex="1">
          <mxGeometry y="210" width="180" height="30" as="geometry" />
        </mxCell>
        <mxCell id="67jeWISCJ-B0vMnym0nd-96" value="" style="shape=partialRectangle;connectable=0;fillColor=none;top=0;left=0;bottom=0;right=0;editable=1;overflow=hidden;" parent="67jeWISCJ-B0vMnym0nd-95" vertex="1">
          <mxGeometry width="30" height="30" as="geometry">
            <mxRectangle width="30" height="30" as="alternateBounds" />
          </mxGeometry>
        </mxCell>
        <mxCell id="67jeWISCJ-B0vMnym0nd-97" value="ZipCode " style="shape=partialRectangle;connectable=0;fillColor=none;top=0;left=0;bottom=0;right=0;align=left;spacingLeft=6;overflow=hidden;" parent="67jeWISCJ-B0vMnym0nd-95" vertex="1">
          <mxGeometry x="30" width="150" height="30" as="geometry">
            <mxRectangle width="150" height="30" as="alternateBounds" />
          </mxGeometry>
        </mxCell>
        <mxCell id="67jeWISCJ-B0vMnym0nd-98" value="" style="edgeStyle=entityRelationEdgeStyle;fontSize=12;html=1;endArrow=ERmandOne;startArrow=ERmandOne;rounded=0;" parent="1" source="67jeWISCJ-B0vMnym0nd-73" target="67jeWISCJ-B0vMnym0nd-77" edge="1">
          <mxGeometry width="100" height="100" relative="1" as="geometry">
            <mxPoint x="-1169" y="-554" as="sourcePoint" />
            <mxPoint x="-1019" y="-494" as="targetPoint" />
            <Array as="points">
              <mxPoint x="-905" y="-364" />
            </Array>
          </mxGeometry>
        </mxCell>
        <mxCell id="67jeWISCJ-B0vMnym0nd-99" value="ItemOrder" style="shape=table;startSize=30;container=1;collapsible=1;childLayout=tableLayout;fixedRows=1;rowLines=0;fontStyle=1;align=center;resizeLast=1;html=1;" parent="1" vertex="1">
          <mxGeometry x="-144" y="-1276" width="180" height="210" as="geometry" />
        </mxCell>
        <mxCell id="67jeWISCJ-B0vMnym0nd-100" value="" style="shape=tableRow;horizontal=0;startSize=0;swimlaneHead=0;swimlaneBody=0;fillColor=none;collapsible=0;dropTarget=0;points=[[0,0.5],[1,0.5]];portConstraint=eastwest;top=0;left=0;right=0;bottom=1;" parent="67jeWISCJ-B0vMnym0nd-99" vertex="1">
          <mxGeometry y="30" width="180" height="30" as="geometry" />
        </mxCell>
        <mxCell id="67jeWISCJ-B0vMnym0nd-101" value="PK" style="shape=partialRectangle;connectable=0;fillColor=none;top=0;left=0;bottom=0;right=0;fontStyle=1;overflow=hidden;whiteSpace=wrap;html=1;" parent="67jeWISCJ-B0vMnym0nd-100" vertex="1">
          <mxGeometry width="30" height="30" as="geometry">
            <mxRectangle width="30" height="30" as="alternateBounds" />
          </mxGeometry>
        </mxCell>
        <mxCell id="67jeWISCJ-B0vMnym0nd-102" value="ID" style="shape=partialRectangle;connectable=0;fillColor=none;top=0;left=0;bottom=0;right=0;align=left;spacingLeft=6;fontStyle=5;overflow=hidden;whiteSpace=wrap;html=1;" parent="67jeWISCJ-B0vMnym0nd-100" vertex="1">
          <mxGeometry x="30" width="150" height="30" as="geometry">
            <mxRectangle width="150" height="30" as="alternateBounds" />
          </mxGeometry>
        </mxCell>
        <mxCell id="67jeWISCJ-B0vMnym0nd-177" value="" style="shape=tableRow;horizontal=0;startSize=0;swimlaneHead=0;swimlaneBody=0;fillColor=none;collapsible=0;dropTarget=0;points=[[0,0.5],[1,0.5]];portConstraint=eastwest;top=0;left=0;right=0;bottom=0;" parent="67jeWISCJ-B0vMnym0nd-99" vertex="1">
          <mxGeometry y="60" width="180" height="30" as="geometry" />
        </mxCell>
        <mxCell id="67jeWISCJ-B0vMnym0nd-178" value="FK" style="shape=partialRectangle;connectable=0;fillColor=none;top=0;left=0;bottom=0;right=0;fontStyle=0;overflow=hidden;whiteSpace=wrap;html=1;" parent="67jeWISCJ-B0vMnym0nd-177" vertex="1">
          <mxGeometry width="30" height="30" as="geometry">
            <mxRectangle width="30" height="30" as="alternateBounds" />
          </mxGeometry>
        </mxCell>
        <mxCell id="67jeWISCJ-B0vMnym0nd-179" value="OrderID" style="shape=partialRectangle;connectable=0;fillColor=none;top=0;left=0;bottom=0;right=0;align=left;spacingLeft=6;fontStyle=0;overflow=hidden;whiteSpace=wrap;html=1;" parent="67jeWISCJ-B0vMnym0nd-177" vertex="1">
          <mxGeometry x="30" width="150" height="30" as="geometry">
            <mxRectangle width="150" height="30" as="alternateBounds" />
          </mxGeometry>
        </mxCell>
        <mxCell id="67jeWISCJ-B0vMnym0nd-118" value="" style="shape=tableRow;horizontal=0;startSize=0;swimlaneHead=0;swimlaneBody=0;fillColor=none;collapsible=0;dropTarget=0;points=[[0,0.5],[1,0.5]];portConstraint=eastwest;top=0;left=0;right=0;bottom=0;" parent="67jeWISCJ-B0vMnym0nd-99" vertex="1">
          <mxGeometry y="90" width="180" height="30" as="geometry" />
        </mxCell>
        <mxCell id="67jeWISCJ-B0vMnym0nd-119" value="FK" style="shape=partialRectangle;connectable=0;fillColor=none;top=0;left=0;bottom=0;right=0;fontStyle=0;overflow=hidden;whiteSpace=wrap;html=1;" parent="67jeWISCJ-B0vMnym0nd-118" vertex="1">
          <mxGeometry width="30" height="30" as="geometry">
            <mxRectangle width="30" height="30" as="alternateBounds" />
          </mxGeometry>
        </mxCell>
        <mxCell id="67jeWISCJ-B0vMnym0nd-120" value="ItemID" style="shape=partialRectangle;connectable=0;fillColor=none;top=0;left=0;bottom=0;right=0;align=left;spacingLeft=6;fontStyle=0;overflow=hidden;whiteSpace=wrap;html=1;" parent="67jeWISCJ-B0vMnym0nd-118" vertex="1">
          <mxGeometry x="30" width="150" height="30" as="geometry">
            <mxRectangle width="150" height="30" as="alternateBounds" />
          </mxGeometry>
        </mxCell>
        <mxCell id="67jeWISCJ-B0vMnym0nd-154" value="" style="shape=tableRow;horizontal=0;startSize=0;swimlaneHead=0;swimlaneBody=0;fillColor=none;collapsible=0;dropTarget=0;points=[[0,0.5],[1,0.5]];portConstraint=eastwest;top=0;left=0;right=0;bottom=0;" parent="67jeWISCJ-B0vMnym0nd-99" vertex="1">
          <mxGeometry y="120" width="180" height="30" as="geometry" />
        </mxCell>
        <mxCell id="67jeWISCJ-B0vMnym0nd-155" value="" style="shape=partialRectangle;connectable=0;fillColor=none;top=0;left=0;bottom=0;right=0;editable=1;overflow=hidden;" parent="67jeWISCJ-B0vMnym0nd-154" vertex="1">
          <mxGeometry width="30" height="30" as="geometry">
            <mxRectangle width="30" height="30" as="alternateBounds" />
          </mxGeometry>
        </mxCell>
        <mxCell id="67jeWISCJ-B0vMnym0nd-156" value="Quantity" style="shape=partialRectangle;connectable=0;fillColor=none;top=0;left=0;bottom=0;right=0;align=left;spacingLeft=6;overflow=hidden;" parent="67jeWISCJ-B0vMnym0nd-154" vertex="1">
          <mxGeometry x="30" width="150" height="30" as="geometry">
            <mxRectangle width="150" height="30" as="alternateBounds" />
          </mxGeometry>
        </mxCell>
        <mxCell id="67jeWISCJ-B0vMnym0nd-157" value="" style="shape=tableRow;horizontal=0;startSize=0;swimlaneHead=0;swimlaneBody=0;fillColor=none;collapsible=0;dropTarget=0;points=[[0,0.5],[1,0.5]];portConstraint=eastwest;top=0;left=0;right=0;bottom=0;" parent="67jeWISCJ-B0vMnym0nd-99" vertex="1">
          <mxGeometry y="150" width="180" height="30" as="geometry" />
        </mxCell>
        <mxCell id="67jeWISCJ-B0vMnym0nd-158" value="" style="shape=partialRectangle;connectable=0;fillColor=none;top=0;left=0;bottom=0;right=0;editable=1;overflow=hidden;" parent="67jeWISCJ-B0vMnym0nd-157" vertex="1">
          <mxGeometry width="30" height="30" as="geometry">
            <mxRectangle width="30" height="30" as="alternateBounds" />
          </mxGeometry>
        </mxCell>
        <mxCell id="67jeWISCJ-B0vMnym0nd-159" value="TotalPrice" style="shape=partialRectangle;connectable=0;fillColor=none;top=0;left=0;bottom=0;right=0;align=left;spacingLeft=6;overflow=hidden;" parent="67jeWISCJ-B0vMnym0nd-157" vertex="1">
          <mxGeometry x="30" width="150" height="30" as="geometry">
            <mxRectangle width="150" height="30" as="alternateBounds" />
          </mxGeometry>
        </mxCell>
        <mxCell id="67jeWISCJ-B0vMnym0nd-109" value="" style="shape=tableRow;horizontal=0;startSize=0;swimlaneHead=0;swimlaneBody=0;fillColor=none;collapsible=0;dropTarget=0;points=[[0,0.5],[1,0.5]];portConstraint=eastwest;top=0;left=0;right=0;bottom=0;" parent="67jeWISCJ-B0vMnym0nd-99" vertex="1">
          <mxGeometry y="180" width="180" height="30" as="geometry" />
        </mxCell>
        <mxCell id="67jeWISCJ-B0vMnym0nd-110" value="" style="shape=partialRectangle;connectable=0;fillColor=none;top=0;left=0;bottom=0;right=0;editable=1;overflow=hidden;whiteSpace=wrap;html=1;" parent="67jeWISCJ-B0vMnym0nd-109" vertex="1">
          <mxGeometry width="30" height="30" as="geometry">
            <mxRectangle width="30" height="30" as="alternateBounds" />
          </mxGeometry>
        </mxCell>
        <mxCell id="67jeWISCJ-B0vMnym0nd-111" value="..." style="shape=partialRectangle;connectable=0;fillColor=none;top=0;left=0;bottom=0;right=0;align=left;spacingLeft=6;overflow=hidden;whiteSpace=wrap;html=1;" parent="67jeWISCJ-B0vMnym0nd-109" vertex="1">
          <mxGeometry x="30" width="150" height="30" as="geometry">
            <mxRectangle width="150" height="30" as="alternateBounds" />
          </mxGeometry>
        </mxCell>
        <mxCell id="67jeWISCJ-B0vMnym0nd-124" value="Item" style="shape=table;startSize=30;container=1;collapsible=1;childLayout=tableLayout;fixedRows=1;rowLines=0;fontStyle=1;align=center;resizeLast=1;html=1;" parent="1" vertex="1">
          <mxGeometry x="-144" y="-858" width="180" height="300" as="geometry" />
        </mxCell>
        <mxCell id="67jeWISCJ-B0vMnym0nd-125" value="" style="shape=tableRow;horizontal=0;startSize=0;swimlaneHead=0;swimlaneBody=0;fillColor=none;collapsible=0;dropTarget=0;points=[[0,0.5],[1,0.5]];portConstraint=eastwest;top=0;left=0;right=0;bottom=1;" parent="67jeWISCJ-B0vMnym0nd-124" vertex="1">
          <mxGeometry y="30" width="180" height="30" as="geometry" />
        </mxCell>
        <mxCell id="67jeWISCJ-B0vMnym0nd-126" value="PK" style="shape=partialRectangle;connectable=0;fillColor=none;top=0;left=0;bottom=0;right=0;fontStyle=1;overflow=hidden;whiteSpace=wrap;html=1;" parent="67jeWISCJ-B0vMnym0nd-125" vertex="1">
          <mxGeometry width="30" height="30" as="geometry">
            <mxRectangle width="30" height="30" as="alternateBounds" />
          </mxGeometry>
        </mxCell>
        <mxCell id="67jeWISCJ-B0vMnym0nd-127" value="ID" style="shape=partialRectangle;connectable=0;fillColor=none;top=0;left=0;bottom=0;right=0;align=left;spacingLeft=6;fontStyle=5;overflow=hidden;whiteSpace=wrap;html=1;" parent="67jeWISCJ-B0vMnym0nd-125" vertex="1">
          <mxGeometry x="30" width="150" height="30" as="geometry">
            <mxRectangle width="150" height="30" as="alternateBounds" />
          </mxGeometry>
        </mxCell>
        <mxCell id="67jeWISCJ-B0vMnym0nd-131" value="" style="shape=tableRow;horizontal=0;startSize=0;swimlaneHead=0;swimlaneBody=0;fillColor=none;collapsible=0;dropTarget=0;points=[[0,0.5],[1,0.5]];portConstraint=eastwest;top=0;left=0;right=0;bottom=0;" parent="67jeWISCJ-B0vMnym0nd-124" vertex="1">
          <mxGeometry y="60" width="180" height="30" as="geometry" />
        </mxCell>
        <mxCell id="67jeWISCJ-B0vMnym0nd-132" value="FK" style="shape=partialRectangle;connectable=0;fillColor=none;top=0;left=0;bottom=0;right=0;fontStyle=0;overflow=hidden;whiteSpace=wrap;html=1;" parent="67jeWISCJ-B0vMnym0nd-131" vertex="1">
          <mxGeometry width="30" height="30" as="geometry">
            <mxRectangle width="30" height="30" as="alternateBounds" />
          </mxGeometry>
        </mxCell>
        <mxCell id="67jeWISCJ-B0vMnym0nd-133" value="RestaurantID" style="shape=partialRectangle;connectable=0;fillColor=none;top=0;left=0;bottom=0;right=0;align=left;spacingLeft=6;fontStyle=0;overflow=hidden;whiteSpace=wrap;html=1;" parent="67jeWISCJ-B0vMnym0nd-131" vertex="1">
          <mxGeometry x="30" width="150" height="30" as="geometry">
            <mxRectangle width="150" height="30" as="alternateBounds" />
          </mxGeometry>
        </mxCell>
        <mxCell id="67jeWISCJ-B0vMnym0nd-142" value="" style="shape=tableRow;horizontal=0;startSize=0;swimlaneHead=0;swimlaneBody=0;fillColor=none;collapsible=0;dropTarget=0;points=[[0,0.5],[1,0.5]];portConstraint=eastwest;top=0;left=0;right=0;bottom=0;" parent="67jeWISCJ-B0vMnym0nd-124" vertex="1">
          <mxGeometry y="90" width="180" height="30" as="geometry" />
        </mxCell>
        <mxCell id="67jeWISCJ-B0vMnym0nd-143" value="" style="shape=partialRectangle;connectable=0;fillColor=none;top=0;left=0;bottom=0;right=0;editable=1;overflow=hidden;" parent="67jeWISCJ-B0vMnym0nd-142" vertex="1">
          <mxGeometry width="30" height="30" as="geometry">
            <mxRectangle width="30" height="30" as="alternateBounds" />
          </mxGeometry>
        </mxCell>
        <mxCell id="67jeWISCJ-B0vMnym0nd-144" value="Price" style="shape=partialRectangle;connectable=0;fillColor=none;top=0;left=0;bottom=0;right=0;align=left;spacingLeft=6;overflow=hidden;" parent="67jeWISCJ-B0vMnym0nd-142" vertex="1">
          <mxGeometry x="30" width="150" height="30" as="geometry">
            <mxRectangle width="150" height="30" as="alternateBounds" />
          </mxGeometry>
        </mxCell>
        <mxCell id="67jeWISCJ-B0vMnym0nd-145" value="" style="shape=tableRow;horizontal=0;startSize=0;swimlaneHead=0;swimlaneBody=0;fillColor=none;collapsible=0;dropTarget=0;points=[[0,0.5],[1,0.5]];portConstraint=eastwest;top=0;left=0;right=0;bottom=0;" parent="67jeWISCJ-B0vMnym0nd-124" vertex="1">
          <mxGeometry y="120" width="180" height="30" as="geometry" />
        </mxCell>
        <mxCell id="67jeWISCJ-B0vMnym0nd-146" value="" style="shape=partialRectangle;connectable=0;fillColor=none;top=0;left=0;bottom=0;right=0;editable=1;overflow=hidden;" parent="67jeWISCJ-B0vMnym0nd-145" vertex="1">
          <mxGeometry width="30" height="30" as="geometry">
            <mxRectangle width="30" height="30" as="alternateBounds" />
          </mxGeometry>
        </mxCell>
        <mxCell id="67jeWISCJ-B0vMnym0nd-147" value="Description" style="shape=partialRectangle;connectable=0;fillColor=none;top=0;left=0;bottom=0;right=0;align=left;spacingLeft=6;overflow=hidden;" parent="67jeWISCJ-B0vMnym0nd-145" vertex="1">
          <mxGeometry x="30" width="150" height="30" as="geometry">
            <mxRectangle width="150" height="30" as="alternateBounds" />
          </mxGeometry>
        </mxCell>
        <mxCell id="67jeWISCJ-B0vMnym0nd-148" value="" style="shape=tableRow;horizontal=0;startSize=0;swimlaneHead=0;swimlaneBody=0;fillColor=none;collapsible=0;dropTarget=0;points=[[0,0.5],[1,0.5]];portConstraint=eastwest;top=0;left=0;right=0;bottom=0;" parent="67jeWISCJ-B0vMnym0nd-124" vertex="1">
          <mxGeometry y="150" width="180" height="30" as="geometry" />
        </mxCell>
        <mxCell id="67jeWISCJ-B0vMnym0nd-149" value="" style="shape=partialRectangle;connectable=0;fillColor=none;top=0;left=0;bottom=0;right=0;editable=1;overflow=hidden;" parent="67jeWISCJ-B0vMnym0nd-148" vertex="1">
          <mxGeometry width="30" height="30" as="geometry">
            <mxRectangle width="30" height="30" as="alternateBounds" />
          </mxGeometry>
        </mxCell>
        <mxCell id="67jeWISCJ-B0vMnym0nd-150" value="Discount" style="shape=partialRectangle;connectable=0;fillColor=none;top=0;left=0;bottom=0;right=0;align=left;spacingLeft=6;overflow=hidden;" parent="67jeWISCJ-B0vMnym0nd-148" vertex="1">
          <mxGeometry x="30" width="150" height="30" as="geometry">
            <mxRectangle width="150" height="30" as="alternateBounds" />
          </mxGeometry>
        </mxCell>
        <mxCell id="67jeWISCJ-B0vMnym0nd-207" value="" style="shape=tableRow;horizontal=0;startSize=0;swimlaneHead=0;swimlaneBody=0;fillColor=none;collapsible=0;dropTarget=0;points=[[0,0.5],[1,0.5]];portConstraint=eastwest;top=0;left=0;right=0;bottom=0;" parent="67jeWISCJ-B0vMnym0nd-124" vertex="1">
          <mxGeometry y="180" width="180" height="30" as="geometry" />
        </mxCell>
        <mxCell id="67jeWISCJ-B0vMnym0nd-208" value="" style="shape=partialRectangle;connectable=0;fillColor=none;top=0;left=0;bottom=0;right=0;editable=1;overflow=hidden;" parent="67jeWISCJ-B0vMnym0nd-207" vertex="1">
          <mxGeometry width="30" height="30" as="geometry">
            <mxRectangle width="30" height="30" as="alternateBounds" />
          </mxGeometry>
        </mxCell>
        <mxCell id="67jeWISCJ-B0vMnym0nd-209" value="IsAvailable" style="shape=partialRectangle;connectable=0;fillColor=none;top=0;left=0;bottom=0;right=0;align=left;spacingLeft=6;overflow=hidden;" parent="67jeWISCJ-B0vMnym0nd-207" vertex="1">
          <mxGeometry x="30" width="150" height="30" as="geometry">
            <mxRectangle width="150" height="30" as="alternateBounds" />
          </mxGeometry>
        </mxCell>
        <mxCell id="67jeWISCJ-B0vMnym0nd-244" value="" style="shape=tableRow;horizontal=0;startSize=0;swimlaneHead=0;swimlaneBody=0;fillColor=none;collapsible=0;dropTarget=0;points=[[0,0.5],[1,0.5]];portConstraint=eastwest;top=0;left=0;right=0;bottom=0;" parent="67jeWISCJ-B0vMnym0nd-124" vertex="1">
          <mxGeometry y="210" width="180" height="30" as="geometry" />
        </mxCell>
        <mxCell id="67jeWISCJ-B0vMnym0nd-245" value="" style="shape=partialRectangle;connectable=0;fillColor=none;top=0;left=0;bottom=0;right=0;editable=1;overflow=hidden;" parent="67jeWISCJ-B0vMnym0nd-244" vertex="1">
          <mxGeometry width="30" height="30" as="geometry">
            <mxRectangle width="30" height="30" as="alternateBounds" />
          </mxGeometry>
        </mxCell>
        <mxCell id="67jeWISCJ-B0vMnym0nd-246" value="PreprationTime" style="shape=partialRectangle;connectable=0;fillColor=none;top=0;left=0;bottom=0;right=0;align=left;spacingLeft=6;overflow=hidden;" parent="67jeWISCJ-B0vMnym0nd-244" vertex="1">
          <mxGeometry x="30" width="150" height="30" as="geometry">
            <mxRectangle width="150" height="30" as="alternateBounds" />
          </mxGeometry>
        </mxCell>
        <mxCell id="LLjUIJLtnGVvc8a8mBEm-20" value="" style="shape=tableRow;horizontal=0;startSize=0;swimlaneHead=0;swimlaneBody=0;fillColor=none;collapsible=0;dropTarget=0;points=[[0,0.5],[1,0.5]];portConstraint=eastwest;top=0;left=0;right=0;bottom=0;" vertex="1" parent="67jeWISCJ-B0vMnym0nd-124">
          <mxGeometry y="240" width="180" height="30" as="geometry" />
        </mxCell>
        <mxCell id="LLjUIJLtnGVvc8a8mBEm-21" value="" style="shape=partialRectangle;connectable=0;fillColor=none;top=0;left=0;bottom=0;right=0;editable=1;overflow=hidden;" vertex="1" parent="LLjUIJLtnGVvc8a8mBEm-20">
          <mxGeometry width="30" height="30" as="geometry">
            <mxRectangle width="30" height="30" as="alternateBounds" />
          </mxGeometry>
        </mxCell>
        <mxCell id="LLjUIJLtnGVvc8a8mBEm-22" value="PhotoURL " style="shape=partialRectangle;connectable=0;fillColor=none;top=0;left=0;bottom=0;right=0;align=left;spacingLeft=6;overflow=hidden;" vertex="1" parent="LLjUIJLtnGVvc8a8mBEm-20">
          <mxGeometry x="30" width="150" height="30" as="geometry">
            <mxRectangle width="150" height="30" as="alternateBounds" />
          </mxGeometry>
        </mxCell>
        <mxCell id="67jeWISCJ-B0vMnym0nd-137" value="" style="shape=tableRow;horizontal=0;startSize=0;swimlaneHead=0;swimlaneBody=0;fillColor=none;collapsible=0;dropTarget=0;points=[[0,0.5],[1,0.5]];portConstraint=eastwest;top=0;left=0;right=0;bottom=0;" parent="67jeWISCJ-B0vMnym0nd-124" vertex="1">
          <mxGeometry y="270" width="180" height="30" as="geometry" />
        </mxCell>
        <mxCell id="67jeWISCJ-B0vMnym0nd-138" value="" style="shape=partialRectangle;connectable=0;fillColor=none;top=0;left=0;bottom=0;right=0;editable=1;overflow=hidden;whiteSpace=wrap;html=1;" parent="67jeWISCJ-B0vMnym0nd-137" vertex="1">
          <mxGeometry width="30" height="30" as="geometry">
            <mxRectangle width="30" height="30" as="alternateBounds" />
          </mxGeometry>
        </mxCell>
        <mxCell id="67jeWISCJ-B0vMnym0nd-139" value="..." style="shape=partialRectangle;connectable=0;fillColor=none;top=0;left=0;bottom=0;right=0;align=left;spacingLeft=6;overflow=hidden;whiteSpace=wrap;html=1;" parent="67jeWISCJ-B0vMnym0nd-137" vertex="1">
          <mxGeometry x="30" width="150" height="30" as="geometry">
            <mxRectangle width="150" height="30" as="alternateBounds" />
          </mxGeometry>
        </mxCell>
        <mxCell id="67jeWISCJ-B0vMnym0nd-151" value="" style="edgeStyle=entityRelationEdgeStyle;fontSize=12;html=1;endArrow=ERoneToMany;rounded=0;" parent="1" source="67jeWISCJ-B0vMnym0nd-28" target="67jeWISCJ-B0vMnym0nd-131" edge="1">
          <mxGeometry width="100" height="100" relative="1" as="geometry">
            <mxPoint x="-841" y="-323" as="sourcePoint" />
            <mxPoint x="-741" y="-423" as="targetPoint" />
          </mxGeometry>
        </mxCell>
        <mxCell id="67jeWISCJ-B0vMnym0nd-160" value="Order" style="shape=table;startSize=30;container=1;collapsible=1;childLayout=tableLayout;fixedRows=1;rowLines=0;fontStyle=1;align=center;resizeLast=1;html=1;" parent="1" vertex="1">
          <mxGeometry x="-480" y="-1121" width="180" height="270" as="geometry" />
        </mxCell>
        <mxCell id="67jeWISCJ-B0vMnym0nd-161" value="" style="shape=tableRow;horizontal=0;startSize=0;swimlaneHead=0;swimlaneBody=0;fillColor=none;collapsible=0;dropTarget=0;points=[[0,0.5],[1,0.5]];portConstraint=eastwest;top=0;left=0;right=0;bottom=1;" parent="67jeWISCJ-B0vMnym0nd-160" vertex="1">
          <mxGeometry y="30" width="180" height="30" as="geometry" />
        </mxCell>
        <mxCell id="67jeWISCJ-B0vMnym0nd-162" value="PK" style="shape=partialRectangle;connectable=0;fillColor=none;top=0;left=0;bottom=0;right=0;fontStyle=1;overflow=hidden;whiteSpace=wrap;html=1;" parent="67jeWISCJ-B0vMnym0nd-161" vertex="1">
          <mxGeometry width="30" height="30" as="geometry">
            <mxRectangle width="30" height="30" as="alternateBounds" />
          </mxGeometry>
        </mxCell>
        <mxCell id="67jeWISCJ-B0vMnym0nd-163" value="ID" style="shape=partialRectangle;connectable=0;fillColor=none;top=0;left=0;bottom=0;right=0;align=left;spacingLeft=6;fontStyle=5;overflow=hidden;whiteSpace=wrap;html=1;" parent="67jeWISCJ-B0vMnym0nd-161" vertex="1">
          <mxGeometry x="30" width="150" height="30" as="geometry">
            <mxRectangle width="150" height="30" as="alternateBounds" />
          </mxGeometry>
        </mxCell>
        <mxCell id="67jeWISCJ-B0vMnym0nd-173" value="" style="shape=tableRow;horizontal=0;startSize=0;swimlaneHead=0;swimlaneBody=0;fillColor=none;collapsible=0;dropTarget=0;points=[[0,0.5],[1,0.5]];portConstraint=eastwest;top=0;left=0;right=0;bottom=0;" parent="67jeWISCJ-B0vMnym0nd-160" vertex="1">
          <mxGeometry y="60" width="180" height="30" as="geometry" />
        </mxCell>
        <mxCell id="67jeWISCJ-B0vMnym0nd-174" value="FK" style="shape=partialRectangle;connectable=0;fillColor=none;top=0;left=0;bottom=0;right=0;fontStyle=0;overflow=hidden;whiteSpace=wrap;html=1;" parent="67jeWISCJ-B0vMnym0nd-173" vertex="1">
          <mxGeometry width="30" height="30" as="geometry">
            <mxRectangle width="30" height="30" as="alternateBounds" />
          </mxGeometry>
        </mxCell>
        <mxCell id="67jeWISCJ-B0vMnym0nd-175" value="CustomerID" style="shape=partialRectangle;connectable=0;fillColor=none;top=0;left=0;bottom=0;right=0;align=left;spacingLeft=6;fontStyle=0;overflow=hidden;whiteSpace=wrap;html=1;" parent="67jeWISCJ-B0vMnym0nd-173" vertex="1">
          <mxGeometry x="30" width="150" height="30" as="geometry">
            <mxRectangle width="150" height="30" as="alternateBounds" />
          </mxGeometry>
        </mxCell>
        <mxCell id="67jeWISCJ-B0vMnym0nd-188" value="" style="shape=tableRow;horizontal=0;startSize=0;swimlaneHead=0;swimlaneBody=0;fillColor=none;collapsible=0;dropTarget=0;points=[[0,0.5],[1,0.5]];portConstraint=eastwest;top=0;left=0;right=0;bottom=0;" parent="67jeWISCJ-B0vMnym0nd-160" vertex="1">
          <mxGeometry y="90" width="180" height="30" as="geometry" />
        </mxCell>
        <mxCell id="67jeWISCJ-B0vMnym0nd-189" value="FK" style="shape=partialRectangle;connectable=0;fillColor=none;top=0;left=0;bottom=0;right=0;fontStyle=0;overflow=hidden;whiteSpace=wrap;html=1;" parent="67jeWISCJ-B0vMnym0nd-188" vertex="1">
          <mxGeometry width="30" height="30" as="geometry">
            <mxRectangle width="30" height="30" as="alternateBounds" />
          </mxGeometry>
        </mxCell>
        <mxCell id="67jeWISCJ-B0vMnym0nd-190" value="DeliveryLocation" style="shape=partialRectangle;connectable=0;fillColor=none;top=0;left=0;bottom=0;right=0;align=left;spacingLeft=6;fontStyle=0;overflow=hidden;whiteSpace=wrap;html=1;" parent="67jeWISCJ-B0vMnym0nd-188" vertex="1">
          <mxGeometry x="30" width="150" height="30" as="geometry">
            <mxRectangle width="150" height="30" as="alternateBounds" />
          </mxGeometry>
        </mxCell>
        <mxCell id="67jeWISCJ-B0vMnym0nd-185" value="" style="shape=tableRow;horizontal=0;startSize=0;swimlaneHead=0;swimlaneBody=0;fillColor=none;collapsible=0;dropTarget=0;points=[[0,0.5],[1,0.5]];portConstraint=eastwest;top=0;left=0;right=0;bottom=0;" parent="67jeWISCJ-B0vMnym0nd-160" vertex="1">
          <mxGeometry y="120" width="180" height="30" as="geometry" />
        </mxCell>
        <mxCell id="67jeWISCJ-B0vMnym0nd-186" value="" style="shape=partialRectangle;connectable=0;fillColor=none;top=0;left=0;bottom=0;right=0;editable=1;overflow=hidden;" parent="67jeWISCJ-B0vMnym0nd-185" vertex="1">
          <mxGeometry width="30" height="30" as="geometry">
            <mxRectangle width="30" height="30" as="alternateBounds" />
          </mxGeometry>
        </mxCell>
        <mxCell id="67jeWISCJ-B0vMnym0nd-187" value="TotalPrice" style="shape=partialRectangle;connectable=0;fillColor=none;top=0;left=0;bottom=0;right=0;align=left;spacingLeft=6;overflow=hidden;" parent="67jeWISCJ-B0vMnym0nd-185" vertex="1">
          <mxGeometry x="30" width="150" height="30" as="geometry">
            <mxRectangle width="150" height="30" as="alternateBounds" />
          </mxGeometry>
        </mxCell>
        <mxCell id="67jeWISCJ-B0vMnym0nd-182" value="" style="shape=tableRow;horizontal=0;startSize=0;swimlaneHead=0;swimlaneBody=0;fillColor=none;collapsible=0;dropTarget=0;points=[[0,0.5],[1,0.5]];portConstraint=eastwest;top=0;left=0;right=0;bottom=0;" parent="67jeWISCJ-B0vMnym0nd-160" vertex="1">
          <mxGeometry y="150" width="180" height="30" as="geometry" />
        </mxCell>
        <mxCell id="67jeWISCJ-B0vMnym0nd-183" value="" style="shape=partialRectangle;connectable=0;fillColor=none;top=0;left=0;bottom=0;right=0;editable=1;overflow=hidden;" parent="67jeWISCJ-B0vMnym0nd-182" vertex="1">
          <mxGeometry width="30" height="30" as="geometry">
            <mxRectangle width="30" height="30" as="alternateBounds" />
          </mxGeometry>
        </mxCell>
        <mxCell id="67jeWISCJ-B0vMnym0nd-184" value="Discount" style="shape=partialRectangle;connectable=0;fillColor=none;top=0;left=0;bottom=0;right=0;align=left;spacingLeft=6;overflow=hidden;" parent="67jeWISCJ-B0vMnym0nd-182" vertex="1">
          <mxGeometry x="30" width="150" height="30" as="geometry">
            <mxRectangle width="150" height="30" as="alternateBounds" />
          </mxGeometry>
        </mxCell>
        <mxCell id="67jeWISCJ-B0vMnym0nd-191" value="" style="shape=tableRow;horizontal=0;startSize=0;swimlaneHead=0;swimlaneBody=0;fillColor=none;collapsible=0;dropTarget=0;points=[[0,0.5],[1,0.5]];portConstraint=eastwest;top=0;left=0;right=0;bottom=0;" parent="67jeWISCJ-B0vMnym0nd-160" vertex="1">
          <mxGeometry y="180" width="180" height="30" as="geometry" />
        </mxCell>
        <mxCell id="67jeWISCJ-B0vMnym0nd-192" value="" style="shape=partialRectangle;connectable=0;fillColor=none;top=0;left=0;bottom=0;right=0;editable=1;overflow=hidden;" parent="67jeWISCJ-B0vMnym0nd-191" vertex="1">
          <mxGeometry width="30" height="30" as="geometry">
            <mxRectangle width="30" height="30" as="alternateBounds" />
          </mxGeometry>
        </mxCell>
        <mxCell id="67jeWISCJ-B0vMnym0nd-193" value="Status" style="shape=partialRectangle;connectable=0;fillColor=none;top=0;left=0;bottom=0;right=0;align=left;spacingLeft=6;overflow=hidden;" parent="67jeWISCJ-B0vMnym0nd-191" vertex="1">
          <mxGeometry x="30" width="150" height="30" as="geometry">
            <mxRectangle width="150" height="30" as="alternateBounds" />
          </mxGeometry>
        </mxCell>
        <mxCell id="67jeWISCJ-B0vMnym0nd-194" value="" style="shape=tableRow;horizontal=0;startSize=0;swimlaneHead=0;swimlaneBody=0;fillColor=none;collapsible=0;dropTarget=0;points=[[0,0.5],[1,0.5]];portConstraint=eastwest;top=0;left=0;right=0;bottom=0;" parent="67jeWISCJ-B0vMnym0nd-160" vertex="1">
          <mxGeometry y="210" width="180" height="30" as="geometry" />
        </mxCell>
        <mxCell id="67jeWISCJ-B0vMnym0nd-195" value="" style="shape=partialRectangle;connectable=0;fillColor=none;top=0;left=0;bottom=0;right=0;editable=1;overflow=hidden;" parent="67jeWISCJ-B0vMnym0nd-194" vertex="1">
          <mxGeometry width="30" height="30" as="geometry">
            <mxRectangle width="30" height="30" as="alternateBounds" />
          </mxGeometry>
        </mxCell>
        <mxCell id="67jeWISCJ-B0vMnym0nd-196" value="PaymentMethod" style="shape=partialRectangle;connectable=0;fillColor=none;top=0;left=0;bottom=0;right=0;align=left;spacingLeft=6;overflow=hidden;" parent="67jeWISCJ-B0vMnym0nd-194" vertex="1">
          <mxGeometry x="30" width="150" height="30" as="geometry">
            <mxRectangle width="150" height="30" as="alternateBounds" />
          </mxGeometry>
        </mxCell>
        <mxCell id="67jeWISCJ-B0vMnym0nd-197" value="" style="shape=tableRow;horizontal=0;startSize=0;swimlaneHead=0;swimlaneBody=0;fillColor=none;collapsible=0;dropTarget=0;points=[[0,0.5],[1,0.5]];portConstraint=eastwest;top=0;left=0;right=0;bottom=0;" parent="67jeWISCJ-B0vMnym0nd-160" vertex="1">
          <mxGeometry y="240" width="180" height="30" as="geometry" />
        </mxCell>
        <mxCell id="67jeWISCJ-B0vMnym0nd-198" value="" style="shape=partialRectangle;connectable=0;fillColor=none;top=0;left=0;bottom=0;right=0;editable=1;overflow=hidden;" parent="67jeWISCJ-B0vMnym0nd-197" vertex="1">
          <mxGeometry width="30" height="30" as="geometry">
            <mxRectangle width="30" height="30" as="alternateBounds" />
          </mxGeometry>
        </mxCell>
        <mxCell id="67jeWISCJ-B0vMnym0nd-199" value="PaymentStatus" style="shape=partialRectangle;connectable=0;fillColor=none;top=0;left=0;bottom=0;right=0;align=left;spacingLeft=6;overflow=hidden;" parent="67jeWISCJ-B0vMnym0nd-197" vertex="1">
          <mxGeometry x="30" width="150" height="30" as="geometry">
            <mxRectangle width="150" height="30" as="alternateBounds" />
          </mxGeometry>
        </mxCell>
        <mxCell id="67jeWISCJ-B0vMnym0nd-176" value="" style="edgeStyle=entityRelationEdgeStyle;fontSize=12;html=1;endArrow=ERzeroToMany;endFill=1;rounded=0;exitX=1;exitY=0.5;exitDx=0;exitDy=0;" parent="1" source="8_B0k8QxM6QDgd3OKFG0-21" target="67jeWISCJ-B0vMnym0nd-173" edge="1">
          <mxGeometry width="100" height="100" relative="1" as="geometry">
            <mxPoint x="-865" y="-841" as="sourcePoint" />
            <mxPoint x="-765" y="-941" as="targetPoint" />
          </mxGeometry>
        </mxCell>
        <mxCell id="67jeWISCJ-B0vMnym0nd-180" value="" style="edgeStyle=entityRelationEdgeStyle;fontSize=12;html=1;endArrow=ERoneToMany;rounded=0;" parent="1" source="67jeWISCJ-B0vMnym0nd-161" target="67jeWISCJ-B0vMnym0nd-177" edge="1">
          <mxGeometry width="100" height="100" relative="1" as="geometry">
            <mxPoint x="-315" y="-991" as="sourcePoint" />
            <mxPoint x="-357" y="-666" as="targetPoint" />
            <Array as="points">
              <mxPoint x="-629" y="-806" />
              <mxPoint x="-636" y="-803" />
              <mxPoint x="-602" y="-755" />
            </Array>
          </mxGeometry>
        </mxCell>
        <mxCell id="67jeWISCJ-B0vMnym0nd-181" value="" style="edgeStyle=entityRelationEdgeStyle;fontSize=12;html=1;endArrow=ERmandOne;startArrow=ERmandOne;rounded=0;" parent="1" source="67jeWISCJ-B0vMnym0nd-125" target="67jeWISCJ-B0vMnym0nd-118" edge="1">
          <mxGeometry width="100" height="100" relative="1" as="geometry">
            <mxPoint x="-419" y="-765" as="sourcePoint" />
            <mxPoint x="-319" y="-865" as="targetPoint" />
          </mxGeometry>
        </mxCell>
        <mxCell id="67jeWISCJ-B0vMnym0nd-206" value="" style="edgeStyle=entityRelationEdgeStyle;fontSize=12;html=1;endArrow=ERmandOne;startArrow=ERmandOne;rounded=0;" parent="1" source="67jeWISCJ-B0vMnym0nd-77" target="67jeWISCJ-B0vMnym0nd-188" edge="1">
          <mxGeometry width="100" height="100" relative="1" as="geometry">
            <mxPoint x="-643" y="-464" as="sourcePoint" />
            <mxPoint x="-537" y="-411" as="targetPoint" />
            <Array as="points">
              <mxPoint x="-699" y="-354" />
            </Array>
          </mxGeometry>
        </mxCell>
        <mxCell id="67jeWISCJ-B0vMnym0nd-210" value="DeliveryOrder" style="shape=table;startSize=30;container=1;collapsible=1;childLayout=tableLayout;fixedRows=1;rowLines=0;fontStyle=1;align=center;resizeLast=1;html=1;" parent="1" vertex="1">
          <mxGeometry x="-746" y="-122" width="180" height="240" as="geometry" />
        </mxCell>
        <mxCell id="67jeWISCJ-B0vMnym0nd-211" value="" style="shape=tableRow;horizontal=0;startSize=0;swimlaneHead=0;swimlaneBody=0;fillColor=none;collapsible=0;dropTarget=0;points=[[0,0.5],[1,0.5]];portConstraint=eastwest;top=0;left=0;right=0;bottom=1;" parent="67jeWISCJ-B0vMnym0nd-210" vertex="1">
          <mxGeometry y="30" width="180" height="30" as="geometry" />
        </mxCell>
        <mxCell id="67jeWISCJ-B0vMnym0nd-212" value="PK" style="shape=partialRectangle;connectable=0;fillColor=none;top=0;left=0;bottom=0;right=0;fontStyle=1;overflow=hidden;whiteSpace=wrap;html=1;" parent="67jeWISCJ-B0vMnym0nd-211" vertex="1">
          <mxGeometry width="30" height="30" as="geometry">
            <mxRectangle width="30" height="30" as="alternateBounds" />
          </mxGeometry>
        </mxCell>
        <mxCell id="67jeWISCJ-B0vMnym0nd-213" value="ID" style="shape=partialRectangle;connectable=0;fillColor=none;top=0;left=0;bottom=0;right=0;align=left;spacingLeft=6;fontStyle=5;overflow=hidden;whiteSpace=wrap;html=1;" parent="67jeWISCJ-B0vMnym0nd-211" vertex="1">
          <mxGeometry x="30" width="150" height="30" as="geometry">
            <mxRectangle width="150" height="30" as="alternateBounds" />
          </mxGeometry>
        </mxCell>
        <mxCell id="67jeWISCJ-B0vMnym0nd-231" value="" style="shape=tableRow;horizontal=0;startSize=0;swimlaneHead=0;swimlaneBody=0;fillColor=none;collapsible=0;dropTarget=0;points=[[0,0.5],[1,0.5]];portConstraint=eastwest;top=0;left=0;right=0;bottom=0;" parent="67jeWISCJ-B0vMnym0nd-210" vertex="1">
          <mxGeometry y="60" width="180" height="30" as="geometry" />
        </mxCell>
        <mxCell id="67jeWISCJ-B0vMnym0nd-232" value="FK" style="shape=partialRectangle;connectable=0;fillColor=none;top=0;left=0;bottom=0;right=0;fontStyle=0;overflow=hidden;whiteSpace=wrap;html=1;" parent="67jeWISCJ-B0vMnym0nd-231" vertex="1">
          <mxGeometry width="30" height="30" as="geometry">
            <mxRectangle width="30" height="30" as="alternateBounds" />
          </mxGeometry>
        </mxCell>
        <mxCell id="67jeWISCJ-B0vMnym0nd-233" value="OrderID" style="shape=partialRectangle;connectable=0;fillColor=none;top=0;left=0;bottom=0;right=0;align=left;spacingLeft=6;fontStyle=0;overflow=hidden;whiteSpace=wrap;html=1;" parent="67jeWISCJ-B0vMnym0nd-231" vertex="1">
          <mxGeometry x="30" width="150" height="30" as="geometry">
            <mxRectangle width="150" height="30" as="alternateBounds" />
          </mxGeometry>
        </mxCell>
        <mxCell id="67jeWISCJ-B0vMnym0nd-223" value="" style="shape=tableRow;horizontal=0;startSize=0;swimlaneHead=0;swimlaneBody=0;fillColor=none;collapsible=0;dropTarget=0;points=[[0,0.5],[1,0.5]];portConstraint=eastwest;top=0;left=0;right=0;bottom=0;" parent="67jeWISCJ-B0vMnym0nd-210" vertex="1">
          <mxGeometry y="90" width="180" height="30" as="geometry" />
        </mxCell>
        <mxCell id="67jeWISCJ-B0vMnym0nd-224" value="FK" style="shape=partialRectangle;connectable=0;fillColor=none;top=0;left=0;bottom=0;right=0;fontStyle=0;overflow=hidden;whiteSpace=wrap;html=1;" parent="67jeWISCJ-B0vMnym0nd-223" vertex="1">
          <mxGeometry width="30" height="30" as="geometry">
            <mxRectangle width="30" height="30" as="alternateBounds" />
          </mxGeometry>
        </mxCell>
        <mxCell id="67jeWISCJ-B0vMnym0nd-225" value="RestaurantID" style="shape=partialRectangle;connectable=0;fillColor=none;top=0;left=0;bottom=0;right=0;align=left;spacingLeft=6;fontStyle=0;overflow=hidden;whiteSpace=wrap;html=1;" parent="67jeWISCJ-B0vMnym0nd-223" vertex="1">
          <mxGeometry x="30" width="150" height="30" as="geometry">
            <mxRectangle width="150" height="30" as="alternateBounds" />
          </mxGeometry>
        </mxCell>
        <mxCell id="67jeWISCJ-B0vMnym0nd-227" value="" style="shape=tableRow;horizontal=0;startSize=0;swimlaneHead=0;swimlaneBody=0;fillColor=none;collapsible=0;dropTarget=0;points=[[0,0.5],[1,0.5]];portConstraint=eastwest;top=0;left=0;right=0;bottom=0;" parent="67jeWISCJ-B0vMnym0nd-210" vertex="1">
          <mxGeometry y="120" width="180" height="30" as="geometry" />
        </mxCell>
        <mxCell id="67jeWISCJ-B0vMnym0nd-228" value="FK" style="shape=partialRectangle;connectable=0;fillColor=none;top=0;left=0;bottom=0;right=0;fontStyle=0;overflow=hidden;whiteSpace=wrap;html=1;" parent="67jeWISCJ-B0vMnym0nd-227" vertex="1">
          <mxGeometry width="30" height="30" as="geometry">
            <mxRectangle width="30" height="30" as="alternateBounds" />
          </mxGeometry>
        </mxCell>
        <mxCell id="67jeWISCJ-B0vMnym0nd-229" value="DeliveryManID" style="shape=partialRectangle;connectable=0;fillColor=none;top=0;left=0;bottom=0;right=0;align=left;spacingLeft=6;fontStyle=0;overflow=hidden;whiteSpace=wrap;html=1;" parent="67jeWISCJ-B0vMnym0nd-227" vertex="1">
          <mxGeometry x="30" width="150" height="30" as="geometry">
            <mxRectangle width="150" height="30" as="alternateBounds" />
          </mxGeometry>
        </mxCell>
        <mxCell id="67jeWISCJ-B0vMnym0nd-238" value="" style="shape=tableRow;horizontal=0;startSize=0;swimlaneHead=0;swimlaneBody=0;fillColor=none;collapsible=0;dropTarget=0;points=[[0,0.5],[1,0.5]];portConstraint=eastwest;top=0;left=0;right=0;bottom=0;" parent="67jeWISCJ-B0vMnym0nd-210" vertex="1">
          <mxGeometry y="150" width="180" height="30" as="geometry" />
        </mxCell>
        <mxCell id="67jeWISCJ-B0vMnym0nd-239" value="" style="shape=partialRectangle;connectable=0;fillColor=none;top=0;left=0;bottom=0;right=0;editable=1;overflow=hidden;" parent="67jeWISCJ-B0vMnym0nd-238" vertex="1">
          <mxGeometry width="30" height="30" as="geometry">
            <mxRectangle width="30" height="30" as="alternateBounds" />
          </mxGeometry>
        </mxCell>
        <mxCell id="67jeWISCJ-B0vMnym0nd-240" value="PickupTime" style="shape=partialRectangle;connectable=0;fillColor=none;top=0;left=0;bottom=0;right=0;align=left;spacingLeft=6;overflow=hidden;" parent="67jeWISCJ-B0vMnym0nd-238" vertex="1">
          <mxGeometry x="30" width="150" height="30" as="geometry">
            <mxRectangle width="150" height="30" as="alternateBounds" />
          </mxGeometry>
        </mxCell>
        <mxCell id="67jeWISCJ-B0vMnym0nd-241" value="" style="shape=tableRow;horizontal=0;startSize=0;swimlaneHead=0;swimlaneBody=0;fillColor=none;collapsible=0;dropTarget=0;points=[[0,0.5],[1,0.5]];portConstraint=eastwest;top=0;left=0;right=0;bottom=0;" parent="67jeWISCJ-B0vMnym0nd-210" vertex="1">
          <mxGeometry y="180" width="180" height="30" as="geometry" />
        </mxCell>
        <mxCell id="67jeWISCJ-B0vMnym0nd-242" value="" style="shape=partialRectangle;connectable=0;fillColor=none;top=0;left=0;bottom=0;right=0;editable=1;overflow=hidden;" parent="67jeWISCJ-B0vMnym0nd-241" vertex="1">
          <mxGeometry width="30" height="30" as="geometry">
            <mxRectangle width="30" height="30" as="alternateBounds" />
          </mxGeometry>
        </mxCell>
        <mxCell id="67jeWISCJ-B0vMnym0nd-243" value="DeliveryTime" style="shape=partialRectangle;connectable=0;fillColor=none;top=0;left=0;bottom=0;right=0;align=left;spacingLeft=6;overflow=hidden;" parent="67jeWISCJ-B0vMnym0nd-241" vertex="1">
          <mxGeometry x="30" width="150" height="30" as="geometry">
            <mxRectangle width="150" height="30" as="alternateBounds" />
          </mxGeometry>
        </mxCell>
        <mxCell id="67jeWISCJ-B0vMnym0nd-220" value="" style="shape=tableRow;horizontal=0;startSize=0;swimlaneHead=0;swimlaneBody=0;fillColor=none;collapsible=0;dropTarget=0;points=[[0,0.5],[1,0.5]];portConstraint=eastwest;top=0;left=0;right=0;bottom=0;" parent="67jeWISCJ-B0vMnym0nd-210" vertex="1">
          <mxGeometry y="210" width="180" height="30" as="geometry" />
        </mxCell>
        <mxCell id="67jeWISCJ-B0vMnym0nd-221" value="" style="shape=partialRectangle;connectable=0;fillColor=none;top=0;left=0;bottom=0;right=0;editable=1;overflow=hidden;whiteSpace=wrap;html=1;" parent="67jeWISCJ-B0vMnym0nd-220" vertex="1">
          <mxGeometry width="30" height="30" as="geometry">
            <mxRectangle width="30" height="30" as="alternateBounds" />
          </mxGeometry>
        </mxCell>
        <mxCell id="67jeWISCJ-B0vMnym0nd-222" value="...." style="shape=partialRectangle;connectable=0;fillColor=none;top=0;left=0;bottom=0;right=0;align=left;spacingLeft=6;overflow=hidden;whiteSpace=wrap;html=1;" parent="67jeWISCJ-B0vMnym0nd-220" vertex="1">
          <mxGeometry x="30" width="150" height="30" as="geometry">
            <mxRectangle width="150" height="30" as="alternateBounds" />
          </mxGeometry>
        </mxCell>
        <mxCell id="67jeWISCJ-B0vMnym0nd-226" value="" style="edgeStyle=entityRelationEdgeStyle;fontSize=12;html=1;endArrow=ERmandOne;startArrow=ERmandOne;rounded=0;" parent="1" source="67jeWISCJ-B0vMnym0nd-28" target="67jeWISCJ-B0vMnym0nd-223" edge="1">
          <mxGeometry width="100" height="100" relative="1" as="geometry">
            <mxPoint x="-839" y="-464" as="sourcePoint" />
            <mxPoint x="-733" y="-411" as="targetPoint" />
            <Array as="points">
              <mxPoint x="-895" y="-354" />
            </Array>
          </mxGeometry>
        </mxCell>
        <mxCell id="67jeWISCJ-B0vMnym0nd-230" value="" style="edgeStyle=entityRelationEdgeStyle;fontSize=12;html=1;endArrow=ERmandOne;startArrow=ERmandOne;rounded=0;" parent="1" source="67jeWISCJ-B0vMnym0nd-48" target="67jeWISCJ-B0vMnym0nd-227" edge="1">
          <mxGeometry width="100" height="100" relative="1" as="geometry">
            <mxPoint x="-839" y="-524" as="sourcePoint" />
            <mxPoint x="-734" y="-16" as="targetPoint" />
            <Array as="points">
              <mxPoint x="-885" y="-344" />
            </Array>
          </mxGeometry>
        </mxCell>
        <mxCell id="67jeWISCJ-B0vMnym0nd-235" value="" style="edgeStyle=entityRelationEdgeStyle;fontSize=12;html=1;endArrow=ERmandOne;startArrow=ERmandOne;rounded=0;entryX=0;entryY=0.5;entryDx=0;entryDy=0;" parent="1" source="67jeWISCJ-B0vMnym0nd-231" target="67jeWISCJ-B0vMnym0nd-161" edge="1">
          <mxGeometry width="100" height="100" relative="1" as="geometry">
            <mxPoint x="-665" y="-1094" as="sourcePoint" />
            <mxPoint x="-565" y="-1194" as="targetPoint" />
            <Array as="points">
              <mxPoint x="-731" y="-578" />
              <mxPoint x="-707" y="-292" />
              <mxPoint x="-635" y="-901" />
              <mxPoint x="-707" y="-916" />
            </Array>
          </mxGeometry>
        </mxCell>
        <mxCell id="67jeWISCJ-B0vMnym0nd-250" value="Ledger" style="shape=table;startSize=30;container=1;collapsible=1;childLayout=tableLayout;fixedRows=1;rowLines=0;fontStyle=1;align=center;resizeLast=1;html=1;" parent="1" vertex="1">
          <mxGeometry x="-1035" y="314" width="180" height="240" as="geometry" />
        </mxCell>
        <mxCell id="67jeWISCJ-B0vMnym0nd-251" value="" style="shape=tableRow;horizontal=0;startSize=0;swimlaneHead=0;swimlaneBody=0;fillColor=none;collapsible=0;dropTarget=0;points=[[0,0.5],[1,0.5]];portConstraint=eastwest;top=0;left=0;right=0;bottom=1;" parent="67jeWISCJ-B0vMnym0nd-250" vertex="1">
          <mxGeometry y="30" width="180" height="30" as="geometry" />
        </mxCell>
        <mxCell id="67jeWISCJ-B0vMnym0nd-252" value="PK" style="shape=partialRectangle;connectable=0;fillColor=none;top=0;left=0;bottom=0;right=0;fontStyle=1;overflow=hidden;whiteSpace=wrap;html=1;" parent="67jeWISCJ-B0vMnym0nd-251" vertex="1">
          <mxGeometry width="30" height="30" as="geometry">
            <mxRectangle width="30" height="30" as="alternateBounds" />
          </mxGeometry>
        </mxCell>
        <mxCell id="67jeWISCJ-B0vMnym0nd-253" value="ID" style="shape=partialRectangle;connectable=0;fillColor=none;top=0;left=0;bottom=0;right=0;align=left;spacingLeft=6;fontStyle=5;overflow=hidden;whiteSpace=wrap;html=1;" parent="67jeWISCJ-B0vMnym0nd-251" vertex="1">
          <mxGeometry x="30" width="150" height="30" as="geometry">
            <mxRectangle width="150" height="30" as="alternateBounds" />
          </mxGeometry>
        </mxCell>
        <mxCell id="67jeWISCJ-B0vMnym0nd-263" value="" style="shape=tableRow;horizontal=0;startSize=0;swimlaneHead=0;swimlaneBody=0;fillColor=none;collapsible=0;dropTarget=0;points=[[0,0.5],[1,0.5]];portConstraint=eastwest;top=0;left=0;right=0;bottom=0;" parent="67jeWISCJ-B0vMnym0nd-250" vertex="1">
          <mxGeometry y="60" width="180" height="30" as="geometry" />
        </mxCell>
        <mxCell id="67jeWISCJ-B0vMnym0nd-264" value="FK" style="shape=partialRectangle;connectable=0;fillColor=none;top=0;left=0;bottom=0;right=0;fontStyle=0;overflow=hidden;whiteSpace=wrap;html=1;" parent="67jeWISCJ-B0vMnym0nd-263" vertex="1">
          <mxGeometry width="30" height="30" as="geometry">
            <mxRectangle width="30" height="30" as="alternateBounds" />
          </mxGeometry>
        </mxCell>
        <mxCell id="67jeWISCJ-B0vMnym0nd-265" value="AccountID" style="shape=partialRectangle;connectable=0;fillColor=none;top=0;left=0;bottom=0;right=0;align=left;spacingLeft=6;fontStyle=0;overflow=hidden;whiteSpace=wrap;html=1;" parent="67jeWISCJ-B0vMnym0nd-263" vertex="1">
          <mxGeometry x="30" width="150" height="30" as="geometry">
            <mxRectangle width="150" height="30" as="alternateBounds" />
          </mxGeometry>
        </mxCell>
        <mxCell id="67jeWISCJ-B0vMnym0nd-260" value="" style="shape=tableRow;horizontal=0;startSize=0;swimlaneHead=0;swimlaneBody=0;fillColor=none;collapsible=0;dropTarget=0;points=[[0,0.5],[1,0.5]];portConstraint=eastwest;top=0;left=0;right=0;bottom=0;" parent="67jeWISCJ-B0vMnym0nd-250" vertex="1">
          <mxGeometry y="90" width="180" height="30" as="geometry" />
        </mxCell>
        <mxCell id="67jeWISCJ-B0vMnym0nd-261" value="" style="shape=partialRectangle;connectable=0;fillColor=none;top=0;left=0;bottom=0;right=0;editable=1;overflow=hidden;whiteSpace=wrap;html=1;" parent="67jeWISCJ-B0vMnym0nd-260" vertex="1">
          <mxGeometry width="30" height="30" as="geometry">
            <mxRectangle width="30" height="30" as="alternateBounds" />
          </mxGeometry>
        </mxCell>
        <mxCell id="67jeWISCJ-B0vMnym0nd-262" value="Amount" style="shape=partialRectangle;connectable=0;fillColor=none;top=0;left=0;bottom=0;right=0;align=left;spacingLeft=6;overflow=hidden;whiteSpace=wrap;html=1;" parent="67jeWISCJ-B0vMnym0nd-260" vertex="1">
          <mxGeometry x="30" width="150" height="30" as="geometry">
            <mxRectangle width="150" height="30" as="alternateBounds" />
          </mxGeometry>
        </mxCell>
        <mxCell id="LLjUIJLtnGVvc8a8mBEm-54" value="" style="shape=tableRow;horizontal=0;startSize=0;swimlaneHead=0;swimlaneBody=0;fillColor=none;collapsible=0;dropTarget=0;points=[[0,0.5],[1,0.5]];portConstraint=eastwest;top=0;left=0;right=0;bottom=0;" vertex="1" parent="67jeWISCJ-B0vMnym0nd-250">
          <mxGeometry y="120" width="180" height="30" as="geometry" />
        </mxCell>
        <mxCell id="LLjUIJLtnGVvc8a8mBEm-55" value="" style="shape=partialRectangle;connectable=0;fillColor=none;top=0;left=0;bottom=0;right=0;editable=1;overflow=hidden;" vertex="1" parent="LLjUIJLtnGVvc8a8mBEm-54">
          <mxGeometry width="30" height="30" as="geometry">
            <mxRectangle width="30" height="30" as="alternateBounds" />
          </mxGeometry>
        </mxCell>
        <mxCell id="LLjUIJLtnGVvc8a8mBEm-56" value="TransactionType " style="shape=partialRectangle;connectable=0;fillColor=none;top=0;left=0;bottom=0;right=0;align=left;spacingLeft=6;overflow=hidden;" vertex="1" parent="LLjUIJLtnGVvc8a8mBEm-54">
          <mxGeometry x="30" width="150" height="30" as="geometry">
            <mxRectangle width="150" height="30" as="alternateBounds" />
          </mxGeometry>
        </mxCell>
        <mxCell id="LLjUIJLtnGVvc8a8mBEm-57" value="" style="shape=tableRow;horizontal=0;startSize=0;swimlaneHead=0;swimlaneBody=0;fillColor=none;collapsible=0;dropTarget=0;points=[[0,0.5],[1,0.5]];portConstraint=eastwest;top=0;left=0;right=0;bottom=0;" vertex="1" parent="67jeWISCJ-B0vMnym0nd-250">
          <mxGeometry y="150" width="180" height="30" as="geometry" />
        </mxCell>
        <mxCell id="LLjUIJLtnGVvc8a8mBEm-58" value="" style="shape=partialRectangle;connectable=0;fillColor=none;top=0;left=0;bottom=0;right=0;editable=1;overflow=hidden;" vertex="1" parent="LLjUIJLtnGVvc8a8mBEm-57">
          <mxGeometry width="30" height="30" as="geometry">
            <mxRectangle width="30" height="30" as="alternateBounds" />
          </mxGeometry>
        </mxCell>
        <mxCell id="LLjUIJLtnGVvc8a8mBEm-59" value="ReferenceID" style="shape=partialRectangle;connectable=0;fillColor=none;top=0;left=0;bottom=0;right=0;align=left;spacingLeft=6;overflow=hidden;" vertex="1" parent="LLjUIJLtnGVvc8a8mBEm-57">
          <mxGeometry x="30" width="150" height="30" as="geometry">
            <mxRectangle width="150" height="30" as="alternateBounds" />
          </mxGeometry>
        </mxCell>
        <mxCell id="LLjUIJLtnGVvc8a8mBEm-60" value="" style="shape=tableRow;horizontal=0;startSize=0;swimlaneHead=0;swimlaneBody=0;fillColor=none;collapsible=0;dropTarget=0;points=[[0,0.5],[1,0.5]];portConstraint=eastwest;top=0;left=0;right=0;bottom=0;" vertex="1" parent="67jeWISCJ-B0vMnym0nd-250">
          <mxGeometry y="180" width="180" height="30" as="geometry" />
        </mxCell>
        <mxCell id="LLjUIJLtnGVvc8a8mBEm-61" value="" style="shape=partialRectangle;connectable=0;fillColor=none;top=0;left=0;bottom=0;right=0;editable=1;overflow=hidden;" vertex="1" parent="LLjUIJLtnGVvc8a8mBEm-60">
          <mxGeometry width="30" height="30" as="geometry">
            <mxRectangle width="30" height="30" as="alternateBounds" />
          </mxGeometry>
        </mxCell>
        <mxCell id="LLjUIJLtnGVvc8a8mBEm-62" value="Description " style="shape=partialRectangle;connectable=0;fillColor=none;top=0;left=0;bottom=0;right=0;align=left;spacingLeft=6;overflow=hidden;" vertex="1" parent="LLjUIJLtnGVvc8a8mBEm-60">
          <mxGeometry x="30" width="150" height="30" as="geometry">
            <mxRectangle width="150" height="30" as="alternateBounds" />
          </mxGeometry>
        </mxCell>
        <mxCell id="67jeWISCJ-B0vMnym0nd-267" value="" style="shape=tableRow;horizontal=0;startSize=0;swimlaneHead=0;swimlaneBody=0;fillColor=none;collapsible=0;dropTarget=0;points=[[0,0.5],[1,0.5]];portConstraint=eastwest;top=0;left=0;right=0;bottom=0;" parent="67jeWISCJ-B0vMnym0nd-250" vertex="1">
          <mxGeometry y="210" width="180" height="30" as="geometry" />
        </mxCell>
        <mxCell id="67jeWISCJ-B0vMnym0nd-268" value="" style="shape=partialRectangle;connectable=0;fillColor=none;top=0;left=0;bottom=0;right=0;editable=1;overflow=hidden;" parent="67jeWISCJ-B0vMnym0nd-267" vertex="1">
          <mxGeometry width="30" height="30" as="geometry">
            <mxRectangle width="30" height="30" as="alternateBounds" />
          </mxGeometry>
        </mxCell>
        <mxCell id="67jeWISCJ-B0vMnym0nd-269" value="...." style="shape=partialRectangle;connectable=0;fillColor=none;top=0;left=0;bottom=0;right=0;align=left;spacingLeft=6;overflow=hidden;" parent="67jeWISCJ-B0vMnym0nd-267" vertex="1">
          <mxGeometry x="30" width="150" height="30" as="geometry">
            <mxRectangle width="150" height="30" as="alternateBounds" />
          </mxGeometry>
        </mxCell>
        <mxCell id="67jeWISCJ-B0vMnym0nd-266" value="" style="edgeStyle=entityRelationEdgeStyle;fontSize=12;html=1;endArrow=ERmandOne;startArrow=ERmandOne;rounded=0;exitX=1;exitY=0.5;exitDx=0;exitDy=0;" parent="1" source="67jeWISCJ-B0vMnym0nd-5" target="67jeWISCJ-B0vMnym0nd-263" edge="1">
          <mxGeometry width="100" height="100" relative="1" as="geometry">
            <mxPoint x="-1169" y="-569" as="sourcePoint" />
            <mxPoint x="-1025" y="52" as="targetPoint" />
          </mxGeometry>
        </mxCell>
        <mxCell id="2H5_-cp9eVZmrB60dS0a-4" value="Review" style="shape=table;startSize=30;container=1;collapsible=1;childLayout=tableLayout;fixedRows=1;rowLines=0;fontStyle=1;align=center;resizeLast=1;html=1;" parent="1" vertex="1">
          <mxGeometry x="-1033" y="674" width="180" height="180" as="geometry" />
        </mxCell>
        <mxCell id="2H5_-cp9eVZmrB60dS0a-5" value="" style="shape=tableRow;horizontal=0;startSize=0;swimlaneHead=0;swimlaneBody=0;fillColor=none;collapsible=0;dropTarget=0;points=[[0,0.5],[1,0.5]];portConstraint=eastwest;top=0;left=0;right=0;bottom=1;" parent="2H5_-cp9eVZmrB60dS0a-4" vertex="1">
          <mxGeometry y="30" width="180" height="30" as="geometry" />
        </mxCell>
        <mxCell id="2H5_-cp9eVZmrB60dS0a-6" value="PK" style="shape=partialRectangle;connectable=0;fillColor=none;top=0;left=0;bottom=0;right=0;fontStyle=1;overflow=hidden;whiteSpace=wrap;html=1;" parent="2H5_-cp9eVZmrB60dS0a-5" vertex="1">
          <mxGeometry width="30" height="30" as="geometry">
            <mxRectangle width="30" height="30" as="alternateBounds" />
          </mxGeometry>
        </mxCell>
        <mxCell id="2H5_-cp9eVZmrB60dS0a-7" value="ID" style="shape=partialRectangle;connectable=0;fillColor=none;top=0;left=0;bottom=0;right=0;align=left;spacingLeft=6;fontStyle=5;overflow=hidden;whiteSpace=wrap;html=1;" parent="2H5_-cp9eVZmrB60dS0a-5" vertex="1">
          <mxGeometry x="30" width="150" height="30" as="geometry">
            <mxRectangle width="150" height="30" as="alternateBounds" />
          </mxGeometry>
        </mxCell>
        <mxCell id="2H5_-cp9eVZmrB60dS0a-17" value="" style="shape=tableRow;horizontal=0;startSize=0;swimlaneHead=0;swimlaneBody=0;fillColor=none;collapsible=0;dropTarget=0;points=[[0,0.5],[1,0.5]];portConstraint=eastwest;top=0;left=0;right=0;bottom=0;" parent="2H5_-cp9eVZmrB60dS0a-4" vertex="1">
          <mxGeometry y="60" width="180" height="30" as="geometry" />
        </mxCell>
        <mxCell id="2H5_-cp9eVZmrB60dS0a-18" value="FK" style="shape=partialRectangle;connectable=0;fillColor=none;top=0;left=0;bottom=0;right=0;fontStyle=0;overflow=hidden;whiteSpace=wrap;html=1;" parent="2H5_-cp9eVZmrB60dS0a-17" vertex="1">
          <mxGeometry width="30" height="30" as="geometry">
            <mxRectangle width="30" height="30" as="alternateBounds" />
          </mxGeometry>
        </mxCell>
        <mxCell id="2H5_-cp9eVZmrB60dS0a-19" value="AccountID" style="shape=partialRectangle;connectable=0;fillColor=none;top=0;left=0;bottom=0;right=0;align=left;spacingLeft=6;fontStyle=0;overflow=hidden;whiteSpace=wrap;html=1;" parent="2H5_-cp9eVZmrB60dS0a-17" vertex="1">
          <mxGeometry x="30" width="150" height="30" as="geometry">
            <mxRectangle width="150" height="30" as="alternateBounds" />
          </mxGeometry>
        </mxCell>
        <mxCell id="2H5_-cp9eVZmrB60dS0a-20" value="" style="shape=tableRow;horizontal=0;startSize=0;swimlaneHead=0;swimlaneBody=0;fillColor=none;collapsible=0;dropTarget=0;points=[[0,0.5],[1,0.5]];portConstraint=eastwest;top=0;left=0;right=0;bottom=0;" parent="2H5_-cp9eVZmrB60dS0a-4" vertex="1">
          <mxGeometry y="90" width="180" height="30" as="geometry" />
        </mxCell>
        <mxCell id="2H5_-cp9eVZmrB60dS0a-21" value="FK" style="shape=partialRectangle;connectable=0;fillColor=none;top=0;left=0;bottom=0;right=0;fontStyle=0;overflow=hidden;whiteSpace=wrap;html=1;" parent="2H5_-cp9eVZmrB60dS0a-20" vertex="1">
          <mxGeometry width="30" height="30" as="geometry">
            <mxRectangle width="30" height="30" as="alternateBounds" />
          </mxGeometry>
        </mxCell>
        <mxCell id="2H5_-cp9eVZmrB60dS0a-22" value="ReviewerID" style="shape=partialRectangle;connectable=0;fillColor=none;top=0;left=0;bottom=0;right=0;align=left;spacingLeft=6;fontStyle=0;overflow=hidden;whiteSpace=wrap;html=1;" parent="2H5_-cp9eVZmrB60dS0a-20" vertex="1">
          <mxGeometry x="30" width="150" height="30" as="geometry">
            <mxRectangle width="150" height="30" as="alternateBounds" />
          </mxGeometry>
        </mxCell>
        <mxCell id="2H5_-cp9eVZmrB60dS0a-8" value="" style="shape=tableRow;horizontal=0;startSize=0;swimlaneHead=0;swimlaneBody=0;fillColor=none;collapsible=0;dropTarget=0;points=[[0,0.5],[1,0.5]];portConstraint=eastwest;top=0;left=0;right=0;bottom=0;" parent="2H5_-cp9eVZmrB60dS0a-4" vertex="1">
          <mxGeometry y="120" width="180" height="30" as="geometry" />
        </mxCell>
        <mxCell id="2H5_-cp9eVZmrB60dS0a-9" value="" style="shape=partialRectangle;connectable=0;fillColor=none;top=0;left=0;bottom=0;right=0;editable=1;overflow=hidden;whiteSpace=wrap;html=1;" parent="2H5_-cp9eVZmrB60dS0a-8" vertex="1">
          <mxGeometry width="30" height="30" as="geometry">
            <mxRectangle width="30" height="30" as="alternateBounds" />
          </mxGeometry>
        </mxCell>
        <mxCell id="2H5_-cp9eVZmrB60dS0a-10" value="Rating" style="shape=partialRectangle;connectable=0;fillColor=none;top=0;left=0;bottom=0;right=0;align=left;spacingLeft=6;overflow=hidden;whiteSpace=wrap;html=1;" parent="2H5_-cp9eVZmrB60dS0a-8" vertex="1">
          <mxGeometry x="30" width="150" height="30" as="geometry">
            <mxRectangle width="150" height="30" as="alternateBounds" />
          </mxGeometry>
        </mxCell>
        <mxCell id="2H5_-cp9eVZmrB60dS0a-11" value="" style="shape=tableRow;horizontal=0;startSize=0;swimlaneHead=0;swimlaneBody=0;fillColor=none;collapsible=0;dropTarget=0;points=[[0,0.5],[1,0.5]];portConstraint=eastwest;top=0;left=0;right=0;bottom=0;" parent="2H5_-cp9eVZmrB60dS0a-4" vertex="1">
          <mxGeometry y="150" width="180" height="30" as="geometry" />
        </mxCell>
        <mxCell id="2H5_-cp9eVZmrB60dS0a-12" value="" style="shape=partialRectangle;connectable=0;fillColor=none;top=0;left=0;bottom=0;right=0;editable=1;overflow=hidden;whiteSpace=wrap;html=1;" parent="2H5_-cp9eVZmrB60dS0a-11" vertex="1">
          <mxGeometry width="30" height="30" as="geometry">
            <mxRectangle width="30" height="30" as="alternateBounds" />
          </mxGeometry>
        </mxCell>
        <mxCell id="2H5_-cp9eVZmrB60dS0a-13" value="Comment" style="shape=partialRectangle;connectable=0;fillColor=none;top=0;left=0;bottom=0;right=0;align=left;spacingLeft=6;overflow=hidden;whiteSpace=wrap;html=1;" parent="2H5_-cp9eVZmrB60dS0a-11" vertex="1">
          <mxGeometry x="30" width="150" height="30" as="geometry">
            <mxRectangle width="150" height="30" as="alternateBounds" />
          </mxGeometry>
        </mxCell>
        <mxCell id="2H5_-cp9eVZmrB60dS0a-23" value="" style="edgeStyle=entityRelationEdgeStyle;fontSize=12;html=1;endArrow=ERmandOne;startArrow=ERmandOne;rounded=0;exitX=1;exitY=0.5;exitDx=0;exitDy=0;entryX=0;entryY=0.5;entryDx=0;entryDy=0;" parent="1" source="67jeWISCJ-B0vMnym0nd-5" target="2H5_-cp9eVZmrB60dS0a-17" edge="1">
          <mxGeometry width="100" height="100" relative="1" as="geometry">
            <mxPoint x="-1169" y="-554" as="sourcePoint" />
            <mxPoint x="-1025" y="478" as="targetPoint" />
          </mxGeometry>
        </mxCell>
        <mxCell id="2H5_-cp9eVZmrB60dS0a-24" value="" style="edgeStyle=entityRelationEdgeStyle;fontSize=12;html=1;endArrow=ERmandOne;startArrow=ERmandOne;rounded=0;exitX=1;exitY=0.5;exitDx=0;exitDy=0;entryX=0;entryY=0.5;entryDx=0;entryDy=0;" parent="1" source="67jeWISCJ-B0vMnym0nd-5" target="2H5_-cp9eVZmrB60dS0a-20" edge="1">
          <mxGeometry width="100" height="100" relative="1" as="geometry">
            <mxPoint x="-1169" y="-554" as="sourcePoint" />
            <mxPoint x="-1023" y="759" as="targetPoint" />
          </mxGeometry>
        </mxCell>
      </root>
    </mxGraphModel>
  </diagram>
  <diagram id="_4VwiVXHQ87lzHO9aMNc" name="Architecture">
    <mxGraphModel dx="2286" dy="2394" grid="0" gridSize="10" guides="1" tooltips="1" connect="1" arrows="1" fold="1" page="0" pageScale="1" pageWidth="850" pageHeight="1100" math="0" shadow="0">
      <root>
        <mxCell id="0" />
        <mxCell id="1" parent="0" />
        <mxCell id="nzsLjCUVtKNa2Z6LAZe3-40" style="edgeStyle=orthogonalEdgeStyle;rounded=0;orthogonalLoop=1;jettySize=auto;html=1;" edge="1" parent="1" source="nzsLjCUVtKNa2Z6LAZe3-39" target="nzsLjCUVtKNa2Z6LAZe3-37">
          <mxGeometry relative="1" as="geometry" />
        </mxCell>
        <mxCell id="nzsLjCUVtKNa2Z6LAZe3-21" style="edgeStyle=orthogonalEdgeStyle;rounded=0;orthogonalLoop=1;jettySize=auto;html=1;" edge="1" parent="1" source="nzsLjCUVtKNa2Z6LAZe3-4" target="nzsLjCUVtKNa2Z6LAZe3-12">
          <mxGeometry relative="1" as="geometry" />
        </mxCell>
        <mxCell id="nzsLjCUVtKNa2Z6LAZe3-4" value="" style="html=1;verticalLabelPosition=bottom;align=center;labelBackgroundColor=#ffffff;verticalAlign=top;strokeWidth=2;strokeColor=#0080F0;shadow=0;dashed=0;shape=mxgraph.ios7.icons.smartphone;" vertex="1" parent="1">
          <mxGeometry x="-216.25" y="-537" width="29" height="65" as="geometry" />
        </mxCell>
        <mxCell id="nzsLjCUVtKNa2Z6LAZe3-5" value="" style="image;aspect=fixed;html=1;points=[];align=center;fontSize=12;image=img/lib/azure2/general/Browser.svg;" vertex="1" parent="1">
          <mxGeometry x="-243" y="-362" width="82.5" height="66" as="geometry" />
        </mxCell>
        <mxCell id="nzsLjCUVtKNa2Z6LAZe3-11" value="Azure API Management / API Gateway" style="image;aspect=fixed;html=1;points=[];align=center;fontSize=15;image=img/lib/azure2/app_services/API_Management_Services.svg;fontStyle=1" vertex="1" parent="1">
          <mxGeometry x="223" y="-631" width="400.84" height="370" as="geometry" />
        </mxCell>
        <mxCell id="nzsLjCUVtKNa2Z6LAZe3-23" style="edgeStyle=orthogonalEdgeStyle;rounded=0;orthogonalLoop=1;jettySize=auto;html=1;" edge="1" parent="1" source="nzsLjCUVtKNa2Z6LAZe3-12" target="nzsLjCUVtKNa2Z6LAZe3-11">
          <mxGeometry relative="1" as="geometry" />
        </mxCell>
        <mxCell id="nzsLjCUVtKNa2Z6LAZe3-45" style="edgeStyle=orthogonalEdgeStyle;rounded=0;orthogonalLoop=1;jettySize=auto;html=1;" edge="1" parent="1" source="nzsLjCUVtKNa2Z6LAZe3-12" target="nzsLjCUVtKNa2Z6LAZe3-37">
          <mxGeometry relative="1" as="geometry">
            <Array as="points">
              <mxPoint x="56" y="603" />
            </Array>
          </mxGeometry>
        </mxCell>
        <mxCell id="nzsLjCUVtKNa2Z6LAZe3-12" value="UI Client Apps" style="image;aspect=fixed;html=1;points=[];align=center;fontSize=12;image=img/lib/azure2/app_services/App_Services.svg;fontStyle=1" vertex="1" parent="1">
          <mxGeometry x="8" y="-494.5" width="96" height="96" as="geometry" />
        </mxCell>
        <mxCell id="nzsLjCUVtKNa2Z6LAZe3-22" style="edgeStyle=orthogonalEdgeStyle;rounded=0;orthogonalLoop=1;jettySize=auto;html=1;entryX=0.01;entryY=0.495;entryDx=0;entryDy=0;entryPerimeter=0;" edge="1" parent="1" source="nzsLjCUVtKNa2Z6LAZe3-5" target="nzsLjCUVtKNa2Z6LAZe3-12">
          <mxGeometry relative="1" as="geometry" />
        </mxCell>
        <mxCell id="nzsLjCUVtKNa2Z6LAZe3-34" value="&lt;b&gt;&lt;font style=&quot;font-size: 18px;&quot;&gt;Redis Cache&lt;/font&gt;&lt;/b&gt;" style="image;aspect=fixed;html=1;points=[];align=center;fontSize=12;image=img/lib/azure2/databases/Cache_Redis.svg;" vertex="1" parent="1">
          <mxGeometry x="1430" y="-932" width="221" height="179.56" as="geometry" />
        </mxCell>
        <mxCell id="nzsLjCUVtKNa2Z6LAZe3-35" value="&lt;b&gt;&lt;font style=&quot;font-size: 17px;&quot;&gt;SQL Database&lt;/font&gt;&lt;/b&gt;" style="image;aspect=fixed;html=1;points=[];align=center;fontSize=12;image=img/lib/azure2/databases/SQL_Database.svg;" vertex="1" parent="1">
          <mxGeometry x="1476" y="-537" width="121" height="161.33" as="geometry" />
        </mxCell>
        <mxCell id="nzsLjCUVtKNa2Z6LAZe3-36" value="Cosmos DB" style="image;aspect=fixed;html=1;points=[];align=center;fontSize=17;image=img/lib/azure2/databases/Azure_Cosmos_DB.svg;fontStyle=1" vertex="1" parent="1">
          <mxGeometry x="1482" y="-167" width="142" height="142" as="geometry" />
        </mxCell>
        <mxCell id="nzsLjCUVtKNa2Z6LAZe3-37" value="Azure Application Insight" style="image;aspect=fixed;html=1;points=[];align=center;fontSize=15;image=img/lib/azure2/devops/Application_Insights.svg;fontStyle=1" vertex="1" parent="1">
          <mxGeometry x="979.39" y="537" width="85.21" height="122" as="geometry" />
        </mxCell>
        <mxCell id="nzsLjCUVtKNa2Z6LAZe3-42" value="" style="group" vertex="1" connectable="0" parent="1">
          <mxGeometry x="827" y="-1189" width="390" height="1504" as="geometry" />
        </mxCell>
        <mxCell id="nzsLjCUVtKNa2Z6LAZe3-39" value="" style="rounded=0;whiteSpace=wrap;html=1;fillColor=#dae8fc;strokeColor=#6c8ebf;" vertex="1" parent="nzsLjCUVtKNa2Z6LAZe3-42">
          <mxGeometry width="390" height="1504" as="geometry" />
        </mxCell>
        <mxCell id="nzsLjCUVtKNa2Z6LAZe3-24" value="Authentication and Authorization Service" style="image;aspect=fixed;html=1;points=[];align=center;fontSize=12;image=img/lib/azure2/app_services/App_Services.svg;fontStyle=1" vertex="1" parent="nzsLjCUVtKNa2Z6LAZe3-42">
          <mxGeometry x="130" y="85" width="100" height="100" as="geometry" />
        </mxCell>
        <mxCell id="nzsLjCUVtKNa2Z6LAZe3-26" value="Customer Management Service" style="image;aspect=fixed;html=1;points=[];align=center;fontSize=12;image=img/lib/azure2/app_services/App_Services.svg;fontStyle=1" vertex="1" parent="nzsLjCUVtKNa2Z6LAZe3-42">
          <mxGeometry x="130" y="301" width="100" height="100" as="geometry" />
        </mxCell>
        <mxCell id="nzsLjCUVtKNa2Z6LAZe3-29" value="Restaurant Management Service" style="image;aspect=fixed;html=1;points=[];align=center;fontSize=12;image=img/lib/azure2/app_services/App_Services.svg;fontStyle=1" vertex="1" parent="nzsLjCUVtKNa2Z6LAZe3-42">
          <mxGeometry x="130" y="502" width="100" height="100" as="geometry" />
        </mxCell>
        <mxCell id="nzsLjCUVtKNa2Z6LAZe3-30" value="Delivery Management Service" style="image;aspect=fixed;html=1;points=[];align=center;fontSize=12;image=img/lib/azure2/app_services/App_Services.svg;fontStyle=1" vertex="1" parent="nzsLjCUVtKNa2Z6LAZe3-42">
          <mxGeometry x="130" y="904" width="100" height="100" as="geometry" />
        </mxCell>
        <mxCell id="nzsLjCUVtKNa2Z6LAZe3-31" value="Payment Processing Service" style="image;aspect=fixed;html=1;points=[];align=center;fontSize=12;image=img/lib/azure2/app_services/App_Services.svg;fontStyle=1" vertex="1" parent="nzsLjCUVtKNa2Z6LAZe3-42">
          <mxGeometry x="130" y="703" width="100" height="100" as="geometry" />
        </mxCell>
        <mxCell id="nzsLjCUVtKNa2Z6LAZe3-32" value="Ratings and Reviews Service" style="image;aspect=fixed;html=1;points=[];align=center;fontSize=12;image=img/lib/azure2/app_services/App_Services.svg;fontStyle=1" vertex="1" parent="nzsLjCUVtKNa2Z6LAZe3-42">
          <mxGeometry x="130" y="1105" width="100" height="100" as="geometry" />
        </mxCell>
        <mxCell id="nzsLjCUVtKNa2Z6LAZe3-33" value="Notification and Communication Service" style="image;aspect=fixed;html=1;points=[];align=center;fontSize=12;image=img/lib/azure2/app_services/App_Services.svg;fontStyle=1" vertex="1" parent="nzsLjCUVtKNa2Z6LAZe3-42">
          <mxGeometry x="130" y="1291" width="100" height="100" as="geometry" />
        </mxCell>
        <mxCell id="nzsLjCUVtKNa2Z6LAZe3-44" value="" style="shape=flexArrow;endArrow=classic;startArrow=classic;html=1;rounded=0;entryX=0;entryY=0.5;entryDx=0;entryDy=0;exitX=1.004;exitY=0.525;exitDx=0;exitDy=0;exitPerimeter=0;" edge="1" parent="1" source="nzsLjCUVtKNa2Z6LAZe3-11" target="nzsLjCUVtKNa2Z6LAZe3-39">
          <mxGeometry width="100" height="100" relative="1" as="geometry">
            <mxPoint x="623.8399999999999" y="-346" as="sourcePoint" />
            <mxPoint x="765.2613562373094" y="-446" as="targetPoint" />
          </mxGeometry>
        </mxCell>
      </root>
    </mxGraphModel>
  </diagram>
</mxfile>
